<?xml version="1.0" standalone="no"?>
<!DOCTYPE svg PUBLIC "-//W3C//DTD SVG 20010904//EN"
 "http://www.w3.org/TR/2001/REC-SVG-20010904/DTD/svg10.dtd">
<svg version="1.0" xmlns="http://www.w3.org/2000/svg"
 width="232.000000pt" height="300.000000pt" viewBox="0 0 232.000000 300.000000"
 preserveAspectRatio="xMidYMid meet">
<metadata>
Created by potrace 1.14, written by Peter Selinger 2001-2017
</metadata>
<g transform="translate(0.000000,300.000000) scale(0.100000,-0.100000)"
fill="#000000" stroke="none">
<path d="M1195 2593 c-285 -12 -358 -26 -495 -99 -104 -55 -124 -78 -25 -30
408 202 897 126 1220 -189 39 -38 86 -88 104 -110 l31 -40 -22 40 c-50 90
-303 307 -439 376 -87 44 -201 60 -374 52z"/>
<path d="M1020 2445 c-41 -14 -98 -25 -126 -25 -39 0 -62 -7 -108 -35 -32 -19
-75 -39 -97 -45 -38 -10 -69 -33 -69 -51 0 -5 -30 -40 -67 -78 -121 -122 -230
-245 -245 -276 -34 -68 -58 -211 -84 -512 -20 -225 -17 -246 56 -357 26 -39
66 -109 90 -155 51 -98 89 -130 185 -156 50 -14 79 -30 121 -66 39 -35 71 -53
112 -64 31 -9 104 -29 162 -45 142 -40 170 -43 281 -32 69 8 111 18 148 36 28
14 88 35 134 46 115 26 187 55 222 87 17 16 65 72 108 125 42 53 100 123 128
155 90 103 95 120 90 318 -1 50 5 137 14 195 22 142 14 211 -35 303 -20 40
-41 95 -45 122 -9 65 -30 98 -110 169 -36 32 -84 82 -107 112 -79 106 -194
158 -473 218 -181 39 -199 40 -285 11z m300 -86 c83 -12 98 -18 153 -63 36
-28 44 -30 122 -31 78 0 86 -2 113 -28 18 -17 39 -58 57 -108 26 -76 72 -147
125 -194 57 -51 88 -167 70 -267 -16 -85 -14 -161 5 -197 24 -48 19 -79 -21
-124 l-36 -40 6 -77 7 -77 -47 -69 c-26 -38 -50 -82 -53 -99 -4 -20 -17 -35
-36 -45 -81 -42 -108 -78 -98 -131 7 -35 -23 -57 -105 -79 -39 -9 -81 -25 -94
-34 -12 -9 -40 -21 -60 -27 -33 -8 -44 -6 -95 21 -48 26 -67 30 -112 28 -52
-3 -55 -5 -63 -34 -13 -49 -40 -49 -114 2 -35 24 -74 44 -87 44 -12 0 -54 -7
-94 -17 -101 -23 -139 -11 -181 57 -23 37 -37 50 -55 50 -28 0 -43 11 -91 72
-20 25 -50 51 -65 56 -26 9 -29 16 -36 73 -4 34 -20 89 -36 123 -24 51 -29 74
-29 139 0 65 -4 87 -29 135 -54 109 -52 201 8 258 33 33 36 41 42 110 5 63 10
80 36 112 17 21 42 61 56 88 28 56 68 82 139 92 39 5 78 39 78 69 0 29 33 84
59 97 14 7 41 16 59 19 18 4 49 18 70 32 42 28 62 31 100 11 15 -7 43 -16 63
-19 32 -5 41 -1 65 25 41 43 86 69 109 64 11 -3 54 -10 95 -17z"/>
<path d="M1285 2212 c-40 -25 -51 -39 -65 -88 -24 -81 27 -159 123 -190 54
-17 58 -17 97 1 62 28 90 67 90 124 0 60 -42 130 -93 154 -46 22 -114 22 -152
-1z"/>
<path d="M925 2213 c-32 -8 -82 -50 -99 -84 -30 -60 -15 -147 34 -194 27 -26
34 -28 105 -27 94 2 126 18 154 75 27 56 27 102 -1 157 -35 66 -107 94 -193
73z"/>
<path d="M1499 1911 c-48 -15 -69 -32 -89 -71 -24 -46 -26 -110 -5 -149 34
-68 124 -106 189 -81 24 9 32 8 50 -8 37 -34 63 -42 135 -42 60 0 74 3 100 26
35 29 56 91 47 140 -14 71 -89 124 -179 126 -42 1 -57 7 -79 28 -37 37 -106
50 -169 31z"/>
<path d="M563 1838 c-72 -23 -120 -109 -103 -183 17 -74 63 -111 150 -120 87
-8 147 35 171 126 11 43 10 50 -12 95 -38 78 -119 110 -206 82z"/>
<path d="M1010 1826 c-60 -20 -78 -34 -95 -81 -23 -60 -16 -137 15 -170 13
-14 44 -29 75 -36 46 -10 57 -9 98 9 58 26 107 90 107 141 -1 46 -31 114 -61
135 -27 18 -87 19 -139 2z"/>
<path d="M1368 1570 c-49 -26 -80 -79 -76 -127 3 -33 -1 -41 -28 -60 -63 -44
-89 -144 -55 -211 28 -55 55 -72 116 -72 64 0 123 36 155 93 19 32 21 49 16
92 -6 50 -4 54 29 89 111 118 -11 272 -157 196z"/>
<path d="M874 1461 c-44 -27 -69 -107 -53 -166 34 -124 180 -165 272 -77 22
21 27 35 27 72 0 119 -64 190 -172 190 -25 0 -56 -8 -74 -19z"/>
<path d="M578 1428 c-20 -5 -44 -18 -53 -28 -25 -28 -31 -101 -11 -141 16 -31
15 -33 -6 -57 -19 -20 -23 -35 -23 -91 0 -59 4 -72 28 -104 40 -53 79 -70 144
-65 42 4 60 11 83 33 57 55 62 143 11 206 -18 22 -17 23 5 57 40 59 27 135
-32 181 -29 23 -82 26 -146 9z"/>
<path d="M1665 1365 c-59 -15 -111 -66 -120 -118 -9 -45 11 -114 40 -143 21
-21 33 -24 97 -24 90 0 126 19 157 82 41 85 19 163 -53 193 -55 22 -70 24
-121 10z"/>
<path d="M898 1079 c-51 -26 -61 -50 -60 -139 2 -88 16 -113 83 -148 68 -36
159 -15 204 46 29 39 28 149 -1 189 -54 73 -147 94 -226 52z"/>
<path d="M1337 1039 c-131 -22 -156 -234 -34 -290 81 -36 174 -16 222 49 43
59 28 180 -28 216 -30 20 -114 33 -160 25z"/>
<path d="M505 2374 c-180 -117 -320 -318 -412 -593 -59 -174 -56 -314 12 -611
30 -129 46 -175 92 -265 78 -153 178 -263 315 -348 122 -77 204 -103 368 -122
197 -23 472 -17 581 13 219 61 444 199 552 339 59 78 152 230 194 321 62 134
67 367 11 589 -11 46 -23 82 -25 79 -2 -2 1 -21 7 -43 18 -61 25 -302 10 -390
-78 -492 -474 -861 -967 -902 -309 -26 -604 77 -829 291 -134 128 -219 262
-278 438 -146 439 7 921 379 1197 66 49 70 53 64 53 -3 0 -36 -20 -74 -46z"/>
</g>
</svg>
