<?xml version="1.0" standalone="no"?>
<!DOCTYPE svg PUBLIC "-//W3C//DTD SVG 20010904//EN"
 "http://www.w3.org/TR/2001/REC-SVG-20010904/DTD/svg10.dtd">
<svg version="1.0" xmlns="http://www.w3.org/2000/svg"
 width="558.000000pt" height="822.000000pt" viewBox="0 0 558.000000 822.000000"
 preserveAspectRatio="xMidYMid meet">
<metadata>
Created by potrace 1.14, written by Peter Selinger 2001-2017
</metadata>
<g transform="translate(0.000000,822.000000) scale(0.100000,-0.100000)"
fill="#000000" stroke="none">
<path d="M3238 8119 c-16 -9 -18 -33 -18 -264 0 -241 1 -255 19 -265 13 -6
171 -10 445 -10 373 0 426 2 440 16 14 13 16 51 16 259 0 208 -2 246 -16 259
-14 14 -67 16 -442 16 -271 0 -433 -4 -444 -11z m298 -110 c4 -8 9 -8 17 0 20
20 68 13 74 -9 l6 -21 14 21 c18 25 68 27 82 3 10 -17 10 -17 11 -1 0 15 12
17 85 17 68 0 85 -3 85 -14 0 -9 -11 -16 -27 -16 l-28 -2 26 -4 c21 -3 26 -10
27 -34 1 -29 0 -29 -54 -29 -39 0 -56 4 -60 15 -4 8 -10 15 -15 15 -5 0 -9 -7
-9 -15 0 -8 -7 -15 -15 -15 -8 0 -15 5 -15 10 0 6 -11 3 -25 -6 -21 -14 -31
-15 -50 -6 -14 7 -25 16 -25 22 0 5 -9 1 -20 -10 -22 -22 -37 -25 -59 -11 -9
6 -22 6 -34 -1 -10 -5 -29 -7 -42 -4 -26 7 -41 36 -24 46 8 6 8 9 0 14 -8 5
-8 13 -1 27 12 21 64 27 76 8z m54 -189 l20 -20 20 20 c27 27 71 26 99 -4 l22
-24 24 24 c13 13 35 24 47 24 29 0 68 -26 68 -46 0 -8 -10 -14 -22 -14 l-22 0
22 -16 c15 -11 22 -25 22 -50 0 -68 -68 -97 -115 -49 l-25 24 -25 -24 c-29
-30 -68 -32 -93 -7 -18 18 -19 18 -42 0 -27 -22 -68 -23 -98 -2 -20 14 -22 22
-19 86 3 55 8 74 22 84 27 20 72 17 95 -6z"/>
<path d="M4208 8119 c-16 -9 -18 -33 -18 -264 0 -241 1 -255 19 -265 13 -6
193 -10 515 -10 436 0 496 2 510 16 24 23 24 495 0 518 -14 14 -74 16 -512 16
-319 0 -503 -4 -514 -11z m432 -111 c0 -10 2 -10 8 -1 5 8 46 12 125 12 98 1
117 -2 117 -14 0 -8 -7 -15 -15 -15 -10 0 -15 -11 -15 -35 0 -24 -5 -35 -15
-35 -10 0 -15 11 -15 35 0 19 -4 35 -8 35 -16 0 -21 -13 -12 -31 16 -28 -15
-52 -57 -44 -19 3 -70 6 -114 6 l-79 0 0 49 0 50 40 0 c25 0 40 -5 40 -12z
m-62 -189 l8 -20 18 20 c25 28 71 27 100 -2 l23 -23 17 23 c19 26 62 30 90 10
10 -8 21 -30 25 -51 l6 -37 38 50 c23 31 45 51 57 51 17 0 20 -7 20 -54 0 -39
4 -55 15 -60 8 -3 15 -12 15 -21 0 -8 -7 -15 -15 -15 -8 0 -15 -9 -15 -20 0
-15 -7 -20 -25 -20 -18 0 -25 5 -25 20 0 31 -60 27 -90 -5 -29 -31 -64 -32
-93 -2 l-22 22 -22 -22 c-28 -29 -76 -30 -103 -3 -29 29 -26 60 5 60 16 0 25
-6 25 -15 0 -8 9 -15 20 -15 11 0 20 7 20 15 0 8 -9 15 -20 15 -13 0 -20 7
-20 19 0 11 9 23 20 26 24 7 27 25 5 25 -9 0 -18 -7 -21 -15 -8 -20 -41 -19
-52 1 -7 13 -11 12 -25 -9 -9 -14 -21 -46 -28 -71 -9 -39 -15 -46 -35 -46 -32
0 -32 31 0 93 l23 47 -38 0 c-31 0 -39 4 -39 18 0 28 8 32 72 32 50 0 60 -3
66 -21z"/>
<path d="M290 7860 l0 -200 141 0 140 0 -3 38 -3 37 -97 3 -98 3 0 159 0 160
-40 0 -40 0 0 -200z"/>
<path d="M2026 8050 c-52 -16 -96 -75 -96 -130 0 -17 6 -20 40 -20 36 0 40 3
40 25 0 26 31 65 53 65 26 0 57 -31 57 -59 0 -36 -11 -49 -94 -106 -49 -35
-74 -60 -87 -89 -35 -77 -37 -76 121 -76 l140 0 0 35 0 35 -86 0 c-100 0 -101
4 -2 71 65 45 88 80 88 138 0 50 -37 96 -88 111 -42 11 -47 11 -86 0z"/>
<path d="M2323 8049 c-17 -5 -41 -22 -52 -37 -66 -93 -45 -304 34 -340 43 -20
118 -15 150 10 41 32 55 76 55 175 0 97 -16 142 -60 175 -31 23 -85 30 -127
17z m86 -78 c38 -38 33 -209 -7 -239 -27 -20 -56 -10 -75 28 -25 47 -19 180 8
210 23 25 49 26 74 1z"/>
<path d="M2944 8049 c-70 -20 -104 -109 -61 -157 18 -19 17 -21 -7 -45 -38
-38 -36 -105 3 -149 26 -29 35 -33 98 -36 51 -3 78 0 101 12 71 37 83 140 21
184 -18 12 -18 13 1 32 27 27 26 89 0 123 -20 25 -76 48 -110 46 -8 0 -29 -5
-46 -10z"/>
<path d="M2622 7938 c-68 -94 -82 -119 -82 -150 l0 -38 80 0 80 0 0 -45 0 -45
40 0 40 0 0 45 c0 41 2 45 25 45 22 0 25 4 25 35 0 31 -3 35 -25 35 l-25 0 0
115 0 115 -38 0 c-37 0 -41 -3 -120 -112z"/>
<path d="M696 7950 c-61 -19 -96 -73 -96 -150 0 -92 48 -140 140 -140 28 0 61
5 73 11 26 13 56 49 57 67 0 15 -66 17 -75 1 -13 -20 -55 -30 -78 -18 -27 14
-37 28 -37 52 0 15 11 17 101 17 l102 0 -6 40 c-12 92 -95 147 -181 120z"/>
<path d="M1035 7955 c-5 -2 -22 -6 -37 -9 -33 -7 -68 -43 -68 -68 0 -27 71
-25 88 2 23 38 104 16 89 -24 -6 -14 -22 -19 -106 -32 -57 -8 -81 -33 -81 -84
0 -59 25 -80 98 -80 33 0 64 5 71 13 11 10 14 10 18 0 3 -8 22 -13 44 -13 l39
0 0 99 c0 122 -7 159 -34 176 -21 13 -102 27 -121 20z"/>
<path d="M1373 7945 c-18 -8 -33 -19 -33 -25 0 -5 -4 -10 -10 -10 -5 0 -10 9
-10 20 0 16 -7 20 -35 20 l-35 0 0 -145 0 -145 40 0 40 0 0 84 c0 98 20 136
71 136 27 0 29 2 29 40 0 44 -7 47 -57 25z"/>
<path d="M1593 7953 c-12 -2 -27 -11 -33 -19 -16 -18 -30 -18 -30 1 0 10 -11
15 -35 15 l-35 0 0 -145 0 -145 40 0 40 0 0 98 c0 83 3 102 18 115 21 19 49
22 72 7 11 -7 16 -35 18 -115 l4 -105 39 0 39 0 0 98 c0 108 -12 167 -38 181
-24 12 -73 19 -99 14z"/>
<path d="M3932 7418 c-17 -17 -17 -359 0 -376 17 -17 1289 -17 1306 0 8 8 12
64 12 188 0 124 -4 180 -12 188 -17 17 -1289 17 -1306 0z m256 -165 l22 -38 0
38 c0 30 4 37 20 37 16 0 20 -7 20 -37 1 -31 3 -35 11 -20 12 20 59 23 77 5 9
-9 12 -9 12 0 0 7 9 12 20 12 14 0 20 -7 21 -22 l0 -23 9 23 c5 12 16 22 25
22 9 0 20 -10 25 -22 l9 -23 0 23 c1 16 7 22 22 22 22 0 22 -14 -1 -75 -11
-29 -49 -35 -51 -7 -1 16 -2 16 -6 0 -7 -27 -49 -23 -57 5 l-7 22 -9 -22 c-12
-30 -46 -38 -75 -19 -14 9 -25 12 -25 6 0 -5 -11 -10 -23 -10 -16 0 -28 9 -37
28 l-14 27 -4 -27 c-2 -20 -9 -28 -23 -28 -17 0 -19 7 -19 70 0 61 2 70 18 70
10 0 27 -16 40 -37z m474 20 c13 -12 18 -30 18 -68 0 -52 0 -53 -35 -59 -77
-15 -122 57 -74 118 24 30 63 34 91 9z m129 -73 l6 -45 1 48 2 47 70 0 c54 0
72 -4 76 -15 6 -14 8 -14 18 1 17 23 68 15 82 -14 26 -53 -22 -100 -71 -68
-14 9 -25 12 -25 6 0 -5 -9 -10 -20 -10 -16 0 -20 7 -20 35 0 19 -4 35 -10 35
-5 0 -10 -16 -10 -35 0 -28 -4 -35 -20 -35 -16 0 -20 7 -20 36 0 21 -4 33 -10
29 -5 -3 -10 -19 -10 -35 0 -27 -2 -28 -52 -32 -29 -3 -61 -1 -70 4 -20 10
-25 48 -7 48 8 0 8 4 0 13 -17 21 8 38 49 35 33 -3 35 -5 41 -48z"/>
<path d="M2901 7258 c-11 -29 4 -36 29 -13 13 11 20 13 25 5 4 -7 -8 -26 -29
-45 -49 -44 -46 -55 14 -55 38 0 50 4 50 15 0 10 -10 15 -26 15 l-26 0 23 19
24 19 11 -31 c9 -26 17 -33 42 -35 22 -2 34 2 38 12 8 21 63 21 70 1 4 -8 10
-15 15 -15 5 0 9 7 9 15 0 8 4 15 9 15 5 0 14 -7 21 -15 16 -19 64 -20 79 -1
8 10 9 29 4 63 -8 47 -9 48 -43 48 -32 0 -35 -3 -40 -33 -7 -43 -24 -42 -28 3
-4 46 -24 45 -53 -1 l-22 -37 -11 34 c-9 28 -16 35 -44 37 -27 3 -35 -1 -39
-18 l-6 -21 -14 21 c-20 29 -71 27 -82 -2z"/>
<path d="M3734 6803 c1 -12 -7 -17 -24 -18 -15 0 -29 -9 -36 -24 -12 -23 -12
-23 -19 -2 -8 25 -50 38 -70 21 -20 -17 -20 -76 1 -84 27 -10 51 -7 65 10 12
15 10 16 -18 10 -18 -4 -34 -3 -38 3 -4 7 8 11 33 11 31 0 41 -4 45 -20 4 -16
14 -20 46 -20 l41 0 0 65 c0 49 -3 65 -14 65 -8 0 -13 -8 -12 -17z"/>
<path d="M1890 5895 l0 -225 860 0 860 0 0 225 0 225 -860 0 -860 0 0 -225z
m1710 0 l0 -215 -850 0 -850 0 0 215 0 215 850 0 850 0 0 -215z"/>
<path d="M270 5250 c-20 -20 -20 -33 -20 -2480 0 -2447 0 -2460 20 -2480 20
-20 33 -20 2480 -20 2447 0 2460 0 2480 20 20 20 20 33 20 2480 0 2447 0 2460
-20 2480 -20 20 -33 20 -2480 20 -2447 0 -2460 0 -2480 -20z m1195 -665 l0
-530 -530 0 -530 0 -3 520 c-1 286 0 526 3 533 3 10 115 12 532 10 l528 -3 0
-530z m1210 0 l0 -530 -530 0 -530 0 -3 520 c-1 286 0 526 3 533 3 10 115 12
532 10 l528 -3 0 -530z m1213 11 c1 -375 -1 -523 -9 -532 -16 -19 -1028 -21
-1047 -2 -17 17 -17 1029 0 1046 9 9 136 12 533 10 l520 -3 3 -519z m1207 -11
l0 -530 -530 0 -530 0 -3 520 c-1 286 0 526 3 533 3 10 115 12 532 10 l528 -3
0 -530z m-3630 -1210 l0 -530 -530 0 -530 0 -3 520 c-1 286 0 526 3 533 3 10
115 12 532 10 l528 -3 0 -530z m1210 0 l0 -530 -530 0 -530 0 -3 520 c-1 286
0 526 3 533 3 10 115 12 532 10 l528 -3 0 -530z m1210 0 l0 -530 -530 0 -530
0 -3 520 c-1 286 0 526 3 533 3 10 115 12 532 10 l528 -3 0 -530z m1203 523
c17 -17 17 -1029 0 -1046 -17 -17 -1019 -17 -1036 0 -17 17 -17 1029 0 1046
17 17 1019 17 1036 0z m-3623 -1733 l0 -530 -530 0 -530 0 -3 520 c-1 286 0
526 3 533 3 10 115 12 532 10 l528 -3 0 -530z m1203 513 c17 -17 17 -1019 0
-1036 -17 -17 -1029 -17 -1046 0 -17 17 -17 1019 0 1036 17 17 1029 17 1046 0z
m1210 0 c17 -17 17 -1019 0 -1036 -17 -17 -1019 -17 -1036 0 -17 17 -17 1019
0 1036 17 17 1019 17 1036 0z m1210 0 c17 -17 17 -1019 0 -1036 -17 -17 -1019
-17 -1036 0 -17 17 -17 1019 0 1036 17 17 1019 17 1036 0z m-3640 -1210 c17
-17 17 -1019 0 -1036 -17 -17 -1019 -17 -1036 0 -17 17 -17 1019 0 1036 17 17
1019 17 1036 0z m1220 0 c17 -17 17 -1019 0 -1036 -17 -17 -1029 -17 -1046 0
-17 17 -17 1019 0 1036 17 17 1029 17 1046 0z m1210 0 c17 -17 17 -1019 0
-1036 -17 -17 -1019 -17 -1036 0 -17 17 -17 1019 0 1036 17 17 1019 17 1036 0z
m1210 0 c17 -17 17 -1019 0 -1036 -17 -17 -1019 -17 -1036 0 -17 17 -17 1019
0 1036 17 17 1019 17 1036 0z"/>
</g>
</svg>
