<?xml version="1.0" standalone="no"?>
<!DOCTYPE svg PUBLIC "-//W3C//DTD SVG 20010904//EN"
 "http://www.w3.org/TR/2001/REC-SVG-20010904/DTD/svg10.dtd">
<svg version="1.0" xmlns="http://www.w3.org/2000/svg"
 width="482.000000pt" height="492.000000pt" viewBox="0 0 482.000000 492.000000"
 preserveAspectRatio="xMidYMid meet">
<metadata>
Created by potrace 1.14, written by Peter Selinger 2001-2017
</metadata>
<g transform="translate(0.000000,492.000000) scale(0.100000,-0.100000)"
fill="#000000" stroke="none">
<path d="M3136 4905 c-4 -12 -24 -15 -86 -15 -79 0 -81 -1 -91 -27 -6 -17 -9
-81 -7 -157 2 -97 0 -130 -9 -133 -10 -4 -13 30 -13 144 0 103 -4 153 -12 161
-7 7 -39 12 -75 12 -60 0 -64 -2 -74 -27 -12 -33 -8 -407 4 -420 5 -4 89 -8
187 -8 98 0 182 -4 186 -8 9 -8 12 -1243 4 -1748 -5 -312 -6 -336 -22 -328
-30 16 -37 11 -25 -20 15 -40 -9 -84 -88 -168 -46 -48 -67 -63 -88 -63 -24 0
-26 3 -18 18 5 10 16 24 24 30 15 12 12 62 -3 62 -9 0 -3 96 6 111 2 4 0 10
-6 14 -5 3 -10 18 -11 33 0 15 -3 21 -6 14 -9 -22 -33 36 -29 69 2 16 -1 32
-7 36 -6 4 -7 1 -2 -8 6 -11 5 -12 -5 -2 -11 10 -11 15 0 28 10 12 10 19 3 23
-15 9 -20 44 -9 61 6 9 5 12 -2 7 -6 -3 -13 6 -17 23 -6 26 2 70 31 168 4 16
1 23 -15 28 -11 3 -20 12 -18 18 1 7 -6 11 -15 11 -10 -1 -18 5 -18 13 0 8 4
12 9 9 18 -11 28 20 22 64 -6 41 -8 43 -16 20 -5 -14 -9 -34 -9 -45 -1 -11 -7
-20 -13 -19 -7 1 -23 2 -35 3 -17 1 -19 4 -10 13 17 17 15 25 -9 31 -12 3 -18
10 -14 16 3 6 1 11 -4 11 -6 0 -11 6 -11 13 -1 39 -141 133 -164 109 -14 -13
-42 -10 -108 15 -50 19 -72 23 -80 15 -8 -8 -17 -8 -29 -1 -17 9 -18 7 -8 -17
17 -46 8 -52 -65 -43 -55 7 -74 5 -110 -11 -24 -10 -47 -23 -51 -29 -4 -7 -21
-9 -46 -5 -23 4 -39 3 -39 -3 0 -6 15 -13 34 -16 20 -3 47 -18 63 -36 40 -41
68 -50 146 -44 37 3 67 3 67 0 0 -7 -86 -33 -132 -41 -15 -3 -38 -12 -50 -20
-12 -9 -41 -16 -63 -17 -34 -1 -36 -2 -15 -9 14 -4 35 -5 47 -3 37 8 63 -14
63 -52 0 -37 14 -43 55 -24 15 7 12 7 -13 3 l-33 -6 3 39 c2 31 7 39 26 41 13
2 29 -2 37 -8 10 -8 15 -8 20 0 4 7 15 10 25 7 11 -3 21 1 24 9 7 19 36 18 36
-2 0 -14 3 -14 15 -4 12 10 15 10 15 -4 0 -9 -6 -16 -13 -16 -7 0 -18 -9 -25
-21 -10 -16 -16 -18 -27 -9 -9 7 -15 8 -20 0 -3 -5 -16 -10 -28 -10 -15 0 -18
-3 -10 -11 16 -16 102 9 146 43 36 28 65 35 32 8 -8 -7 -15 -20 -15 -30 0 -13
-6 -17 -20 -13 -21 6 -50 -17 -50 -40 0 -21 -21 -35 -45 -31 -24 5 -94 -15
-115 -32 -16 -13 -19 -14 -47 -14 -15 0 -15 -1 2 -14 12 -8 16 -19 11 -31 -5
-15 -2 -17 21 -12 16 3 32 -1 41 -10 8 -8 21 -12 30 -8 8 3 26 -2 39 -10 17
-12 28 -13 37 -6 7 6 22 12 34 14 12 2 30 11 42 22 13 12 20 14 20 5 0 -10 3
-10 16 1 13 10 17 10 24 -1 10 -17 2 -41 -21 -60 -10 -8 -19 -21 -21 -29 -2
-8 -16 -27 -33 -41 -46 -42 -102 -67 -75 -35 22 27 -8 17 -44 -15 -24 -21 -36
-27 -39 -18 -4 10 -6 10 -6 1 -2 -22 -31 -14 -31 8 0 28 -29 18 -77 -26 l-37
-34 28 -10 c15 -6 36 -11 47 -11 26 0 59 -18 84 -45 11 -13 28 -21 38 -20 26
5 33 -22 12 -45 -10 -11 -14 -20 -10 -20 5 0 4 -5 -2 -11 -20 -20 19 -80 54
-85 9 -2 28 -9 41 -16 22 -11 26 -10 48 15 12 15 28 27 34 27 6 0 9 4 6 9 -5
8 17 23 37 25 5 1 14 9 21 18 12 17 66 33 65 20 -4 -25 2 -42 13 -36 7 5 8 3
3 -7 -5 -7 -10 -25 -12 -40 -2 -25 0 -27 23 -23 21 4 25 2 20 -11 -4 -13 -1
-16 17 -14 12 2 28 0 35 -4 18 -12 32 1 32 28 0 13 5 27 10 30 7 4 8 -3 4 -22
-5 -23 -4 -26 7 -15 16 14 49 16 49 2 0 -5 -7 -10 -15 -10 -9 0 -12 -6 -9 -15
4 -8 1 -22 -6 -30 -7 -9 -10 -18 -6 -22 3 -3 6 -1 6 5 0 7 5 12 11 12 21 0 -3
-19 -54 -44 -28 -14 -97 -41 -153 -60 -121 -41 -188 -45 -219 -13 -24 26 -73
50 -86 42 -12 -8 -12 -35 1 -35 6 0 2 -8 -7 -18 -16 -17 -20 -17 -36 -4 -15
13 -26 17 -70 21 -5 1 -6 5 -2 10 3 5 0 13 -6 17 -8 4 -9 3 -5 -4 5 -8 -2 -12
-18 -12 -32 0 -32 -7 -1 -50 14 -19 25 -30 25 -25 0 4 9 0 20 -10 21 -19 27
-45 10 -45 -6 0 -10 -10 -9 -22 4 -42 -1 -58 -16 -58 -8 0 -14 -6 -13 -12 2
-8 -9 -14 -24 -16 -16 -2 -28 -9 -28 -17 0 -9 -7 -11 -22 -7 -13 3 -19 1 -15
-6 4 -5 18 -9 32 -7 20 2 23 0 14 -11 -6 -8 -15 -11 -20 -9 -4 3 -17 -3 -29
-15 -11 -11 -32 -20 -47 -20 -21 0 -24 -3 -15 -12 18 -18 14 -26 -12 -21 -13
3 -27 0 -30 -6 -4 -6 0 -11 11 -11 17 -1 17 -1 0 -11 -9 -6 -15 -14 -12 -19 3
-4 -3 -6 -14 -3 -10 3 -22 0 -25 -6 -4 -6 -14 -11 -22 -11 -8 0 -27 -11 -42
-25 -15 -14 -31 -25 -36 -25 -10 0 -18 -7 -86 -74 -25 -24 -72 -66 -105 -93
-103 -84 -123 -78 -52 15 54 71 111 168 125 213 6 19 20 62 30 96 11 35 16 63
12 63 -5 0 -12 -5 -15 -10 -4 -6 -12 -10 -18 -9 -39 5 -59 -14 -196 -191 -11
-14 -30 -38 -44 -55 -13 -16 -41 -56 -61 -87 -33 -53 -56 -78 -56 -63 0 35 37
120 65 150 19 20 35 39 35 43 0 4 18 26 40 50 22 24 40 45 40 47 0 7 43 67 70
99 14 16 77 82 141 145 67 68 129 140 147 173 18 31 57 81 87 112 58 58 67 73
38 61 -10 -4 -26 -8 -36 -9 -34 -4 -168 -113 -267 -219 -30 -32 -79 -83 -107
-114 -29 -31 -53 -60 -53 -64 0 -4 -6 -12 -13 -16 -7 -4 -21 -25 -32 -45 -10
-20 -23 -36 -29 -35 -6 1 -10 -5 -11 -13 -1 -28 -36 -88 -55 -93 -10 -2 -26
-16 -35 -30 -30 -46 -65 -161 -65 -214 0 -62 -17 -72 -22 -13 -4 52 -19 51
-37 -3 -17 -52 -15 -50 -40 -42 -12 4 -18 12 -14 21 3 8 0 21 -7 29 -6 8 -9
18 -6 24 9 15 -16 110 -30 115 -21 8 -34 -27 -44 -117 -4 -45 -15 -109 -24
-142 -8 -33 -19 -78 -24 -100 -9 -36 -10 -33 -8 31 1 77 -14 119 -46 127 -18
5 -17 9 12 61 17 30 29 60 26 65 -3 5 1 11 9 15 9 3 14 18 13 41 -1 37 -12 46
-22 20 -4 -13 -10 -14 -26 -5 -24 13 -18 27 17 41 21 8 23 12 13 24 -17 20
-36 19 -52 -4 -18 -26 -89 -60 -132 -63 -26 -1 -40 3 -51 17 -8 11 -15 22 -15
25 0 10 -40 9 -40 -1 0 -5 4 -9 9 -9 5 0 11 -9 14 -20 3 -13 14 -20 29 -20 29
-1 62 -25 53 -39 -9 -16 -30 -14 -45 4 -19 23 -34 18 -53 -15 -22 -37 -43 -39
-42 -4 0 16 -8 31 -20 38 -11 6 -22 14 -25 17 -3 3 -21 9 -41 13 -44 8 -50 22
-58 121 l-6 70 -35 -3 c-19 -1 -36 -7 -38 -12 -2 -6 -12 -10 -23 -10 -16 0
-19 -7 -19 -50 0 -57 5 -62 22 -23 11 26 12 23 20 -42 8 -58 13 -73 31 -80 19
-9 22 -19 25 -82 l3 -73 -41 -6 c-55 -9 -60 -24 -60 -193 0 -105 3 -142 15
-157 25 -33 18 -44 -29 -44 l-43 0 -7 92 c-3 50 -6 211 -6 357 l0 266 -25 11
c-23 11 -24 10 -30 -40 -3 -28 -6 -195 -8 -371 l-2 -320 -38 -6 c-20 -3 -40
-9 -44 -13 -11 -10 -14 -282 -4 -310 8 -18 19 -25 43 -28 25 -2 34 -8 36 -25
4 -25 14 -23 -133 -27 l-60 -1 -5 -70 c-4 -53 -9 -70 -20 -70 -13 0 -15 77
-15 631 0 670 0 664 -46 664 -19 0 -19 -21 -19 -780 l1 -780 440 0 439 0 6 28
c5 26 7 27 74 27 53 0 73 4 89 19 21 19 21 19 42 0 16 -15 36 -19 88 -19 36 0
75 4 85 9 18 9 19 6 13 -27 l-6 -37 160 0 159 0 10 25 c6 15 17 25 30 25 17 0
19 -3 10 -19 -15 -30 -14 -31 43 -31 l54 0 -5 31 c-4 26 -2 30 14 27 12 -2 20
-13 22 -31 3 -23 8 -27 37 -27 31 0 34 3 32 27 -1 19 3 28 16 31 13 3 17 -3
17 -27 0 -21 5 -31 15 -31 10 0 15 10 15 31 0 24 4 30 18 27 12 -3 16 -12 15
-31 -2 -25 1 -27 34 -27 27 0 34 3 29 15 -3 8 -9 22 -12 30 -4 11 0 15 16 15
15 0 25 -9 33 -30 9 -24 17 -30 36 -28 19 2 28 13 39 46 13 41 15 42 36 29 11
-8 25 -28 31 -45 11 -38 40 -43 49 -8 4 17 15 26 36 31 16 4 32 11 35 16 9 14
25 11 25 -6 0 -8 -8 -15 -18 -15 -21 0 -42 -18 -42 -37 0 -8 14 -13 39 -13 36
0 40 3 46 30 9 40 35 40 35 0 0 -29 2 -30 45 -30 41 0 45 2 45 24 0 19 -6 26
-27 29 -16 2 -3 5 28 6 37 0 61 6 69 16 12 14 15 14 30 0 9 -8 24 -15 33 -15
9 0 22 -9 29 -20 17 -27 25 -25 43 10 9 16 22 30 30 30 19 0 19 -13 0 -50
l-16 -30 384 0 384 0 11 24 c9 21 19 24 94 30 46 4 148 4 228 2 80 -3 152 -1
159 3 8 5 27 3 47 -5 23 -10 51 -12 88 -8 65 8 94 0 77 -20 -18 -21 -2 -26 85
-26 79 0 82 1 88 25 7 27 35 35 125 32 32 0 56 4 58 10 3 8 11 7 29 -2 28 -14
211 -12 226 3 5 5 8 29 6 53 l-3 44 -64 5 -64 5 -13 65 c-25 135 -33 214 -23
231 5 10 9 39 9 66 0 26 12 87 26 135 14 48 24 98 22 110 -3 21 -9 23 -70 26
l-67 3 -10 37 c-6 20 -22 84 -36 142 -14 58 -47 175 -72 260 -25 85 -49 184
-54 220 -5 35 -15 72 -22 81 -85 115 -132 172 -175 210 -82 74 -220 163 -322
208 -52 23 -115 54 -140 69 -25 14 -75 41 -111 58 -37 18 -69 36 -73 42 -3 5
-36 23 -73 38 -38 16 -101 48 -141 71 l-73 41 -4 519 c-3 285 -6 716 -9 958
-2 242 -1 492 3 555 l6 115 174 3 c108 1 180 7 188 13 18 16 16 84 -3 103 -8
9 -24 16 -34 16 -31 0 -33 19 -3 32 35 16 43 26 43 61 0 39 -17 67 -40 67 -30
0 -24 17 10 29 27 9 30 15 30 50 0 74 7 71 -186 71 -163 0 -175 1 -186 20 -15
24 -73 28 -82 5z m-231 -198 l0 -157 33 0 c31 0 32 -1 32 -45 l0 -45 -90 0
-90 0 0 198 c0 109 2 201 4 203 2 2 28 4 58 4 l53 0 0 -158z m193 -44 l2 -203
-60 0 -60 0 0 198 c0 109 2 201 4 203 2 2 28 4 58 4 l53 0 3 -202z m137 149
c-1 -61 3 -60 19 4 l12 49 52 1 c29 0 55 -2 57 -6 2 -3 -9 -46 -25 -94 l-29
-89 29 -100 c17 -55 30 -104 30 -108 0 -5 -27 -9 -59 -9 l-60 0 -11 55 c-6 30
-13 55 -15 55 -2 0 -1 -25 2 -55 l6 -55 -62 0 -61 0 0 198 c0 109 2 201 4 203
3 2 28 4 58 3 l53 -1 0 -51z m335 6 c0 -47 0 -48 -32 -48 -30 0 -33 -3 -33
-30 0 -27 3 -30 33 -30 31 0 32 -1 32 -45 0 -43 -1 -45 -29 -45 -25 0 -29 -4
-33 -35 -4 -35 -4 -35 34 -35 l38 0 0 -45 0 -45 -95 0 -95 0 0 198 c0 109 2
201 4 203 2 2 43 4 90 4 l86 0 0 -47z m-1341 -3324 c-6 -8 -18 -14 -26 -14 -8
0 -11 -5 -8 -10 4 -6 12 -7 18 -4 8 5 9 4 2 -4 -5 -5 -26 -13 -45 -16 -67 -10
-73 -13 -85 -42 -6 -16 -15 -27 -20 -24 -4 3 -11 -5 -16 -17 -9 -25 0 -30 21
-10 12 10 12 9 2 -5 -7 -9 -23 -19 -36 -22 -13 -3 -26 -16 -29 -28 -4 -12 -9
-19 -13 -15 -4 4 -14 -2 -22 -14 -10 -15 -17 -18 -25 -10 -8 8 -17 4 -32 -13
-16 -19 -33 -25 -85 -30 -36 -3 -58 -2 -50 1 8 3 23 17 33 30 10 12 27 23 38
23 11 0 18 4 14 10 -8 14 26 50 50 51 11 0 14 3 8 6 -7 2 -13 9 -13 14 0 4 7
6 15 3 9 -4 18 1 22 12 7 20 22 34 36 34 5 0 5 -5 1 -12 -4 -7 -3 -8 5 -4 6 4
10 15 9 24 -2 11 3 16 15 16 12 -1 20 7 24 27 3 16 9 29 13 29 4 0 22 3 39 6
27 6 31 4 31 -15 0 -11 5 -21 10 -21 6 0 10 5 10 10 0 31 24 53 49 45 11 -3
22 -1 26 5 3 6 11 8 16 4 6 -4 6 -11 -2 -20z m-1474 -309 c47 -19 57 -50 53
-168 -3 -94 -4 -100 -31 -123 -41 -35 -99 -33 -138 5 -28 28 -29 33 -29 125 0
96 0 96 -25 96 -20 0 -25 -5 -25 -25 0 -18 5 -25 20 -25 16 0 20 -7 20 -35 0
-28 -4 -35 -20 -35 -18 0 -20 -7 -20 -60 l0 -60 -47 0 -48 0 0 155 0 155 73 0
72 0 1 -32 c0 -28 2 -30 9 -13 10 25 28 41 55 48 35 8 45 7 80 -8z m2817 -12
c11 -9 18 -30 18 -50 0 -32 -1 -33 -40 -33 -33 0 -40 3 -40 20 0 11 -4 20 -10
20 -25 0 -6 -32 35 -60 55 -38 65 -56 65 -114 0 -37 -5 -48 -27 -66 -23 -18
-37 -21 -77 -17 -61 5 -86 32 -86 88 0 38 1 39 37 39 l37 0 -24 16 c-40 27
-50 45 -50 94 0 46 13 69 50 83 24 10 93 -3 112 -20z m-2582 -3 c15 -15 20
-33 20 -69 0 -28 -5 -53 -11 -57 -8 -4 -8 -9 0 -17 6 -6 11 -42 11 -79 l0 -68
-40 0 -40 0 0 59 c0 33 -4 62 -9 65 -5 3 -6 -23 -3 -59 l5 -65 -49 0 -49 0 0
155 0 155 73 0 c59 0 76 -4 92 -20z m227 -22 l11 -43 1 43 1 43 103 -3 102 -3
6 -35 c4 -20 7 -26 8 -13 2 43 12 53 52 53 47 0 47 0 14 -110 -14 -48 -25
-109 -25 -142 l0 -58 -45 0 -45 0 0 58 c0 31 -11 93 -25 137 l-24 80 0 -137
-1 -138 -40 0 -40 0 -2 53 -1 52 -6 -50 c-6 -47 -8 -50 -37 -53 -30 -3 -31 -1
-42 50 l-11 53 6 -52 5 -53 -44 0 -43 0 0 155 0 155 56 0 56 0 10 -42z m563
22 c22 -22 28 -98 10 -116 -8 -8 -6 -15 5 -24 18 -15 21 -100 5 -131 -9 -17
-22 -19 -100 -19 l-89 0 2 155 2 155 73 0 c59 0 76 -4 92 -20z m140 -135 l0
-155 -47 0 -48 0 0 155 0 155 48 0 47 0 0 -155z m180 135 c20 -20 20 -20 20 0
0 19 6 20 146 19 l146 0 -4 -55 c-3 -30 -1 -54 4 -54 4 0 8 25 8 55 l0 55 45
0 45 0 0 -155 0 -155 -97 0 -98 0 1 147 c1 82 0 136 -3 121 -3 -22 -10 -28
-29 -28 l-24 0 0 -120 0 -120 -45 0 -45 0 0 120 0 120 -25 0 c-22 0 -25 -4
-25 -34 0 -19 -5 -38 -11 -42 -8 -4 -8 -9 0 -17 6 -6 11 -42 11 -79 l0 -68
-40 0 -40 0 0 59 c0 33 -4 62 -9 65 -5 3 -6 -23 -3 -59 l5 -65 -49 0 -49 0 0
155 0 155 73 0 c59 0 76 -4 92 -20z m591 1 c22 -17 24 -29 29 -123 l5 -103 14
123 15 123 65 -3 66 -3 17 -120 c9 -66 19 -135 23 -152 l6 -33 -51 0 c-47 0
-50 2 -50 25 0 14 -4 25 -10 25 -5 0 -10 -11 -10 -25 0 -23 -4 -25 -45 -25
-40 0 -45 3 -45 22 l0 22 -16 -22 c-13 -20 -24 -22 -97 -22 l-82 0 2 152 c2
84 3 154 3 156 0 1 31 2 69 2 53 0 74 -4 92 -19z m310 -21 c4 -20 7 -26 8 -13
2 43 12 53 52 53 47 0 47 0 14 -110 -14 -48 -25 -109 -25 -142 l0 -58 -45 0
-45 0 0 58 c0 31 -12 95 -25 141 -33 113 -33 113 18 109 39 -3 42 -5 48 -38z
m329 -115 l0 -155 -47 0 -48 0 0 155 0 155 48 0 47 0 0 -155z m445 130 c20
-19 25 -34 25 -72 0 -63 -21 -93 -63 -93 l-32 0 3 -60 4 -60 -49 0 -48 0 0
155 0 155 68 0 c59 0 71 -3 92 -25z m175 -10 c0 -31 -3 -35 -25 -35 -20 0 -25
-5 -25 -25 0 -20 5 -25 26 -25 23 0 25 -3 22 -32 -2 -25 -8 -34 -24 -36 -14
-2 -24 -12 -27 -28 -4 -21 -1 -24 24 -24 26 0 29 -3 29 -35 l0 -35 -72 0 -73
0 0 155 0 155 73 0 72 0 0 -35z m106 -5 l12 -35 1 38 c1 36 2 37 41 37 l40 0
0 -156 0 -155 -42 3 c-41 3 -43 4 -54 48 l-12 45 -1 -47 -1 -48 -37 0 -38 0 2
152 c1 84 3 154 3 156 0 2 17 2 37 0 31 -3 38 -8 49 -38z m294 5 c0 -31 -3
-35 -25 -35 l-25 0 0 -120 0 -120 -45 0 -45 0 0 120 0 120 -25 0 c-22 0 -25 4
-25 35 l0 35 95 0 95 0 0 -35z m-2764 -212 c-3 -85 3 -93 76 -93 67 0 68 -7 7
-38 -29 -15 -38 -16 -48 -5 -16 18 -128 17 -163 -1 -32 -17 -53 -3 -37 26 7
12 21 18 45 18 30 0 37 5 48 32 8 18 12 38 9 45 -3 7 0 13 6 13 6 0 8 7 5 15
-5 11 -2 13 12 8 11 -4 15 -3 10 5 -5 8 14 28 31 32 0 0 0 -26 -1 -57z m916
-89 c14 -13 -6 -44 -28 -44 -13 0 -28 -9 -34 -19 -14 -27 -13 -231 2 -285 9
-34 9 -51 0 -70 -11 -24 -16 -26 -74 -25 -35 1 -51 4 -36 6 65 10 94 115 42
150 l-26 17 7 124 c4 69 9 131 12 138 4 10 24 14 67 14 35 0 65 -3 68 -6z
m-1499 -17 c4 -12 1 -288 -4 -312 -5 -29 4 -46 32 -60 29 -16 30 -17 12 -30
-11 -9 -43 -14 -80 -15 -34 0 -65 -4 -68 -10 -9 -15 -22 -12 -22 6 0 9 12 23
26 32 14 9 28 17 29 18 2 1 6 51 8 111 4 94 7 110 25 124 16 12 20 24 17 60
-3 42 -5 44 -40 53 -21 5 -38 15 -38 23 0 18 96 18 103 0z m815 -73 c18 -21
22 -36 20 -72 l-3 -45 -40 0 c-40 0 -40 0 -43 41 -6 80 -22 41 -22 -53 0 -57
4 -95 10 -95 6 0 10 16 10 35 0 35 0 35 45 35 l45 0 0 -42 c0 -24 -6 -50 -13
-59 -43 -56 -153 -50 -177 10 -9 24 -9 24 -4 -6 l6 -33 -51 0 c-48 0 -51 2
-51 25 0 14 -4 25 -10 25 -5 0 -10 -11 -10 -25 0 -23 -4 -25 -45 -25 -40 0
-45 3 -45 22 l0 22 -16 -22 c-13 -20 -24 -22 -97 -22 l-82 0 2 152 3 153 68 3
c56 2 73 -1 93 -17 22 -17 24 -28 29 -123 l5 -103 14 123 15 123 65 -3 66 -3
16 -110 17 -110 1 83 c1 96 10 118 54 138 44 20 97 10 125 -22z m1316 22 c19
-8 37 -20 42 -27 5 -8 11 -59 14 -114 l5 -100 14 123 15 123 65 -3 66 -3 16
-115 c24 -168 28 -171 26 -17 l-3 137 74 0 c64 0 76 -3 97 -25 24 -23 25 -31
25 -136 0 -153 4 -149 -162 -149 l-128 0 0 25 c0 14 -4 25 -10 25 -5 0 -10
-11 -10 -25 0 -23 -4 -25 -45 -25 -44 0 -45 1 -46 33 0 28 -1 29 -9 11 -24
-60 -112 -73 -161 -25 l-29 29 0 -24 c0 -23 -3 -24 -67 -24 l-68 0 0 155 0
155 48 0 48 0 -3 -120 c-3 -117 -2 -120 19 -120 20 0 21 5 25 99 4 122 16 141
96 150 7 0 28 -5 46 -13z m931 -1 c36 -14 55 -46 55 -91 0 -22 -4 -24 -45 -24
-43 0 -45 1 -45 30 0 17 -4 30 -10 30 -5 0 -10 -18 -10 -40 l0 -40 55 0 55 0
0 -84 0 -83 -69 -7 c-38 -3 -77 -3 -86 0 -31 12 -45 59 -45 156 0 102 11 135
50 155 33 17 53 16 95 -2z m-3545 -30 c0 -31 -3 -35 -25 -35 l-25 0 0 -120 0
-120 -45 0 -45 0 0 120 0 120 -25 0 -25 0 0 -120 0 -120 -47 0 -48 0 0 155 0
155 143 0 142 0 0 -35z m242 -90 c9 -66 19 -135 23 -152 l6 -33 -51 0 c-47 0
-50 2 -50 25 0 14 -4 25 -10 25 -5 0 -10 -11 -10 -25 0 -23 -4 -25 -45 -25
-29 0 -45 4 -45 13 0 6 7 76 17 155 l17 143 65 -3 66 -3 17 -120z m198 90 c0
-31 -3 -35 -25 -35 l-25 0 0 -120 0 -120 -45 0 -45 0 0 120 0 120 -25 0 c-22
0 -25 4 -25 35 l0 35 95 0 95 0 0 -35z m268 -101 c-3 -135 -3 -136 -31 -160
-41 -35 -99 -33 -138 5 l-29 29 0 131 0 130 101 0 101 0 -4 -135z m993 96 c4
-20 7 -26 8 -13 2 43 12 53 52 53 47 0 47 0 14 -110 -14 -48 -25 -109 -25
-142 l0 -58 -45 0 -45 0 0 58 c0 31 -8 84 -18 117 -16 52 -22 60 -45 63 l-27
3 0 -120 0 -121 -45 0 -45 0 0 120 0 120 -25 0 -25 0 0 -120 0 -120 -47 0 -48
0 0 155 0 155 180 -2 180 -3 6 -35z m427 -96 c-3 -135 -3 -136 -31 -160 -41
-35 -99 -33 -138 5 l-29 29 0 131 0 130 101 0 101 0 -4 -135z m177 111 c20
-19 25 -34 25 -72 0 -63 -21 -93 -63 -93 l-32 0 3 -60 4 -60 -49 0 -48 0 0
155 0 155 68 0 c59 0 71 -3 92 -25z m875 -130 l0 -155 -47 0 -48 0 0 155 0
155 48 0 47 0 0 -155z m106 115 l12 -35 1 38 c1 36 2 37 41 37 l40 0 0 -156 0
-155 -42 3 c-41 3 -43 4 -54 48 l-12 45 -1 -47 -1 -48 -37 0 -38 0 2 152 c2
84 3 154 3 156 0 2 17 2 37 0 31 -3 38 -8 49 -38z m521 -2 l11 -43 1 43 1 43
103 -3 102 -3 6 -35 c4 -20 7 -26 8 -13 2 43 12 53 52 53 47 0 47 0 14 -110
-14 -48 -25 -109 -25 -142 l0 -58 -45 0 -45 0 0 58 c0 31 -11 93 -25 137 l-24
80 0 -137 -1 -138 -40 0 -40 0 -2 53 -1 52 -6 -50 c-6 -47 -8 -50 -37 -53 -30
-3 -31 -1 -42 50 l-11 53 6 -52 5 -53 -44 0 -43 0 0 155 0 155 56 0 56 0 10
-42z m-3312 -362 c26 -11 36 -23 44 -53 6 -21 11 -48 11 -60 0 -21 -5 -23 -49
-23 l-50 0 -4 43 c-2 23 -4 -5 -4 -63 0 -58 2 -86 4 -62 l4 43 47 -3 47 -3 -2
-45 c-3 -65 -38 -94 -107 -87 -77 7 -86 24 -86 161 0 104 2 114 23 133 39 36
70 41 122 19z m233 -21 c20 -24 22 -36 22 -134 0 -134 -10 -151 -87 -158 -45
-5 -55 -2 -77 20 -25 25 -26 31 -26 139 1 77 5 118 14 130 33 45 116 46 154 3z
m581 24 c35 -12 51 -35 51 -73 0 -24 -3 -26 -44 -26 -38 0 -45 3 -49 23 l-4
22 -2 -22 c-1 -15 8 -27 27 -37 53 -27 74 -60 75 -116 1 -63 -15 -81 -80 -87
-63 -6 -100 20 -106 75 -3 30 -4 27 -5 -15 l-2 -53 -45 0 -45 0 -2 68 -2 67
-3 -67 -4 -68 -44 0 -45 0 0 155 0 155 70 0 c63 0 74 -3 97 -26 20 -20 28 -23
34 -12 5 7 9 16 9 20 0 8 48 26 71 27 9 1 30 -4 48 -10z m2297 -20 c17 -16 24
-33 24 -61 l0 -38 -44 0 c-43 0 -45 1 -49 33 -3 28 -4 26 -5 -10 l-2 -43 50 0
50 0 0 -86 0 -86 -34 3 c-19 2 -38 0 -42 -4 -14 -14 -62 -7 -88 14 -25 20 -26
23 -26 134 0 62 3 121 6 130 18 46 117 54 160 14z m-3913 -26 l15 -48 1 48 1
47 40 0 40 0 0 -155 0 -155 -44 0 c-42 0 -44 1 -54 37 l-10 38 -1 -37 c-1 -37
-2 -38 -41 -38 l-40 0 0 155 0 155 39 0 c39 0 40 -1 54 -47z m351 31 c3 -9 7
-34 8 -57 1 -39 2 -38 7 13 l6 55 46 3 c51 3 57 -4 60 -78 2 -25 4 -20 8 20
l6 55 48 3 c49 3 49 3 44 -25 -3 -15 -11 -75 -17 -133 -17 -161 -12 -150 -74
-150 -58 0 -64 6 -67 75 -1 21 -4 15 -11 -22 l-10 -53 -53 0 c-63 0 -58 -11
-76 160 -8 69 -15 115 -17 103 -2 -17 -10 -23 -28 -23 -19 0 -24 -5 -24 -25 0
-20 5 -25 25 -25 22 0 25 -4 25 -35 0 -31 -3 -35 -25 -35 -20 0 -25 -5 -25
-25 0 -21 5 -25 30 -25 28 0 30 -3 30 -35 l0 -35 -75 0 -75 0 0 155 0 155 114
0 c95 0 115 -3 120 -16z m818 -116 l2 -133 3 133 4 132 44 0 45 0 0 -135 c0
-133 -1 -137 -26 -162 -22 -22 -32 -25 -77 -20 -80 7 -87 22 -87 183 l0 134
45 0 45 0 2 -132z m658 97 c0 -31 -3 -35 -25 -35 -20 0 -25 -5 -25 -25 0 -20
5 -25 25 -25 22 0 25 -4 25 -35 0 -31 -3 -35 -25 -35 -20 0 -25 -5 -25 -25 0
-21 5 -25 30 -25 28 0 30 -3 30 -35 l0 -35 -75 0 -75 0 0 155 0 155 70 0 70 0
0 -35z m182 -97 l2 -133 3 133 4 132 44 0 45 0 0 -135 c0 -133 -1 -137 -26
-162 -22 -22 -32 -25 -77 -20 -80 7 -87 22 -87 183 l0 134 45 0 45 0 2 -132z
m211 85 l15 -48 1 47 1 47 135 0 135 1 0 -35 c0 -31 -3 -35 -25 -35 l-25 0 0
-120 0 -120 -45 0 -45 0 0 120 c0 112 -1 120 -19 120 -14 0 -21 8 -24 28 -2
15 -5 -39 -6 -120 l-1 -148 -44 0 c-42 0 -44 1 -54 37 l-10 38 -1 -37 c-1 -37
-2 -38 -41 -38 l-40 0 0 155 0 155 39 0 c39 0 40 -1 54 -47z m387 -108 l0
-155 -45 0 -45 0 0 155 0 155 45 0 45 0 0 -155z m110 35 l0 -120 25 0 c22 0
25 -4 25 -35 l0 -35 -70 0 -70 0 0 155 0 155 45 0 45 0 0 -120z m241 73 c1
-27 3 -37 6 -23 11 72 9 70 68 70 l55 0 0 -155 0 -155 -40 0 c-38 0 -40 2 -42
33 l-1 32 -4 -32 c-4 -30 -7 -33 -39 -33 -33 0 -34 1 -36 43 l-1 42 -4 -43
c-4 -42 -4 -42 -44 -42 l-39 0 0 155 0 155 60 0 60 0 1 -47z m239 -108 l0
-155 -45 0 -45 0 0 155 0 155 45 0 45 0 0 -155z m188 139 c21 -14 22 -22 22
-143 0 -85 -4 -131 -12 -139 -7 -7 -44 -12 -95 -12 l-83 0 0 155 0 155 73 0
c49 0 80 -5 95 -16z m135 -31 l15 -48 1 48 1 47 40 0 40 0 0 -155 0 -155 -44
0 c-42 0 -44 1 -54 37 l-10 38 -1 -37 c-1 -37 -2 -38 -41 -38 l-40 0 0 155 0
155 39 0 c39 0 40 -1 54 -47z m207 -108 l0 -155 -45 0 -45 0 0 155 0 155 45 0
45 0 0 -155z m322 98 l2 -58 3 57 4 57 139 0 140 1 0 -35 c0 -31 -3 -35 -25
-35 l-25 0 0 -120 0 -120 -45 0 -45 0 0 120 0 120 -25 0 -25 0 0 -120 0 -120
-45 0 -45 0 -2 63 -2 62 -3 -63 -4 -62 -44 0 -45 0 0 155 0 155 45 0 45 0 2
-57z"/>
<path d="M1269 4867 c-18 -12 -39 -34 -46 -47 -17 -34 -17 -286 0 -319 33 -64
137 -90 209 -53 30 16 40 17 48 7 15 -18 595 -21 616 -4 20 16 20 401 1 417
-8 7 -74 11 -172 11 -98 0 -164 -4 -172 -11 -7 -6 -13 -31 -14 -57 l-1 -46
-10 45 c-15 66 -20 70 -108 70 -88 0 -97 -5 -109 -71 l-7 -44 -8 31 c-7 32
-34 63 -73 83 -38 19 -116 14 -154 -12z m161 -12 c40 -21 50 -43 50 -115 l0
-61 -57 3 -56 3 -1 47 c-1 26 -5 48 -11 48 -6 0 -10 -47 -10 -120 0 -75 4
-119 10 -117 6 1 10 20 10 42 l0 40 58 3 57 3 0 -57 c0 -50 -3 -59 -34 -90
-30 -30 -40 -34 -88 -34 -64 0 -114 27 -125 67 -10 37 -10 251 0 286 16 58
128 88 197 52z m270 5 c1 -3 14 -88 29 -190 l29 -185 1 190 1 190 73 -1 72 -1
10 -69 9 -69 11 69 10 69 70 0 70 0 3 -201 2 -202 -52 0 -53 0 2 78 c2 65 1
71 -7 37 -5 -22 -9 -57 -9 -77 l-1 -38 -44 0 -43 0 -9 83 -9 82 -3 -82 -3 -83
-109 0 -110 0 0 35 c0 24 -5 35 -15 35 -10 0 -15 -11 -15 -35 l0 -35 -63 0
-63 0 11 83 c7 45 17 127 24 182 19 155 8 140 101 140 44 0 80 -2 80 -5z"/>
<path d="M2545 4883 c-56 -5 -75 -16 -75 -47 l0 -21 -18 21 c-29 36 -57 44
-151 44 -79 0 -92 -2 -101 -19 -6 -12 -10 -96 -10 -205 0 -172 1 -187 20 -206
19 -19 19 -20 -38 -36 -44 -13 -53 -19 -37 -24 19 -7 19 -7 -4 -19 -13 -7 -45
-14 -70 -15 -53 -3 -75 -12 -65 -28 5 -8 1 -9 -10 -5 -14 6 -17 3 -12 -8 3 -9
2 -13 -4 -10 -13 8 -71 -26 -64 -37 3 -4 -2 -8 -10 -8 -8 0 -18 -5 -22 -12 -4
-7 -3 -8 4 -4 7 4 12 3 12 -3 0 -5 -5 -13 -10 -16 -6 -4 -8 -10 -5 -15 3 -5 1
-19 -5 -30 -14 -25 1 -26 24 -1 19 21 63 33 72 20 3 -5 -4 -9 -16 -9 -11 0
-23 -6 -26 -14 -3 -8 -19 -20 -35 -26 -16 -7 -26 -16 -23 -21 3 -5 1 -9 -5 -9
-6 0 -8 -7 -5 -15 4 -8 1 -15 -6 -15 -13 0 -10 -37 5 -75 5 -11 5 -17 0 -13
-13 12 -35 -13 -31 -36 2 -11 1 -15 -1 -8 -6 16 -18 15 -31 -1 -7 -8 -7 -18
-2 -27 10 -16 -8 -57 -20 -44 -13 15 -21 104 -9 104 7 0 9 10 5 25 -4 14 -3
25 2 25 5 0 9 6 9 13 0 6 3 23 7 37 l8 25 -17 -23 c-9 -12 -20 -20 -25 -17 -5
3 -12 -11 -16 -32 -4 -21 -11 -46 -15 -55 -6 -10 -5 -18 3 -20 8 -3 5 -16 -10
-40 -12 -19 -22 -41 -22 -47 0 -7 -7 -19 -15 -27 -18 -18 -20 -49 -3 -38 13 9
-37 -62 -64 -89 -19 -18 -22 -62 -8 -107 7 -26 9 -20 24 70 1 8 7 14 14 13 6
-2 31 28 55 66 50 76 116 137 174 158 36 14 249 20 261 8 3 -2 -6 -9 -19 -14
-23 -9 -23 -10 -3 -10 12 -1 36 5 54 12 29 13 40 11 117 -15 69 -24 94 -28
134 -23 30 4 53 13 58 23 5 9 13 14 17 10 3 -4 15 -3 25 3 13 7 19 6 19 -1 0
-6 25 -21 55 -35 33 -14 55 -30 55 -39 0 -9 4 -16 9 -16 14 0 45 -104 55 -187
3 -17 12 -43 22 -57 9 -15 14 -29 10 -33 -3 -3 -1 -12 4 -18 12 -15 16 -77 6
-93 -3 -6 -2 -13 3 -17 6 -3 13 -25 16 -48 5 -32 14 -48 36 -62 41 -28 48 -70
16 -103 -14 -15 -31 -52 -39 -82 -11 -47 -11 -60 1 -88 10 -22 20 -31 30 -27
10 3 9 0 -3 -10 -11 -8 -15 -15 -8 -15 6 0 9 -7 6 -15 -7 -17 11 -21 21 -5 11
18 25 11 26 -12 l1 -23 6 23 c4 13 12 23 17 22 6 0 13 14 16 32 4 18 7 25 8
16 0 -9 6 -20 12 -24 7 -4 9 0 5 12 -4 14 3 23 26 34 17 8 38 25 46 38 l15 23
-36 -21 c-47 -28 -82 -20 -72 17 3 15 1 40 -6 56 -11 27 -14 28 -20 11 -4 -10
-8 -35 -9 -54 -1 -31 -2 -33 -10 -13 -6 14 -6 44 0 75 5 29 12 71 15 92 l7 40
20 -32 c19 -31 20 -44 3 -84 -5 -13 -2 -18 9 -18 9 0 16 7 16 15 0 10 10 15
29 15 39 0 54 22 55 78 1 43 -1 47 -29 56 -16 6 -32 12 -34 13 -6 4 31 32 42
33 14 0 47 -65 47 -95 0 -39 15 -64 24 -40 3 9 7 31 7 48 1 19 3 24 6 14 5
-18 5 -18 19 0 18 24 17 68 -2 119 -19 49 -53 70 -87 54 -19 -9 -18 -7 4 12
33 29 41 73 40 202 -2 85 -7 114 -35 195 -59 167 -67 185 -97 216 -16 17 -29
37 -29 43 0 27 -34 62 -113 116 -65 45 -104 63 -183 86 -55 16 -127 39 -159
51 -58 22 -59 23 -30 29 17 4 40 12 50 18 15 8 24 7 35 -2 8 -8 55 -16 107
-20 104 -7 123 1 123 57 0 58 -10 75 -48 85 l-37 10 32 7 c33 8 43 26 43 80 0
35 -7 47 -35 63 -20 11 -20 11 1 12 26 0 34 18 34 74 0 67 -8 70 -155 59z
m-135 -33 c29 -16 42 -47 43 -103 1 -36 -4 -52 -16 -58 -15 -9 -15 -11 3 -29
26 -26 29 -143 4 -178 -14 -20 -23 -22 -125 -22 l-109 0 0 203 0 203 91 -3
c49 -2 99 -8 109 -13z m260 -32 c0 -47 0 -48 -32 -48 -30 0 -33 -3 -33 -30 0
-27 3 -30 33 -30 31 0 32 -1 32 -45 0 -43 -1 -45 -29 -45 -25 0 -29 -4 -33
-35 -4 -35 -4 -35 34 -35 l38 0 0 -45 0 -45 -95 0 -95 0 0 203 0 202 90 0 90
0 0 -47z"/>
<path d="M235 4199 c3 -24 14 -183 25 -354 22 -334 97 -1338 104 -1395 15
-121 29 -411 19 -421 -10 -10 -307 -30 -329 -22 -13 5 -25 67 -30 158 -2 33
-7 85 -12 115 -7 39 -10 -48 -11 -293 l-1 -348 98 5 c227 11 617 25 886 31
181 4 297 10 310 17 12 6 44 28 71 48 28 20 96 63 152 95 56 32 119 73 140 91
l38 33 -27 1 c-16 0 -28 4 -28 9 0 11 36 21 81 21 20 0 42 7 49 15 11 13 5 15
-48 15 -42 0 -63 5 -72 16 -8 8 -17 57 -21 107 -11 142 -67 759 -149 1647 -17
184 -33 337 -36 339 -3 3 -87 13 -187 23 -503 46 -851 78 -934 84 l-93 7 5
-44z m451 -79 c684 -59 686 -59 698 -97 7 -24 22 -156 41 -378 9 -99 29 -331
45 -515 43 -496 80 -953 80 -999 0 -22 -4 -42 -8 -45 -5 -3 -247 -8 -540 -12
l-531 -7 -5 24 c-6 30 -44 466 -96 1104 -60 743 -73 924 -66 940 7 19 -26 20
382 -15z"/>
<path d="M936 3681 c-35 -39 -40 -113 -23 -337 20 -254 21 -254 59 -254 39 0
74 -42 83 -100 10 -62 7 -152 -5 -164 -29 -29 5 -71 37 -45 14 12 15 30 10
136 -7 135 -27 204 -58 196 -27 -7 -66 25 -83 68 -19 48 -23 127 -8 156 12 23
106 76 116 66 3 -4 6 -23 6 -44 0 -50 13 -56 33 -15 11 23 29 40 58 52 l42 19
-6 112 c-6 123 -15 150 -54 159 -32 8 -52 -15 -68 -80 -15 -56 -29 -51 -36 12
-4 29 -12 59 -19 67 -17 21 -64 19 -84 -4z"/>
<path d="M581 3175 c-1 -16 27 -111 28 -97 1 6 6 12 12 12 8 0 7 -6 -2 -16
-15 -18 -15 -35 3 -133 8 -46 19 -73 40 -97 34 -38 31 -60 -7 -70 -25 -6 -25
-8 -25 -98 0 -91 11 -162 27 -176 4 -4 18 -11 30 -14 37 -12 70 30 78 98 9 67
22 62 31 -9 9 -71 28 -97 66 -93 86 8 97 141 46 525 -11 81 -11 82 -42 88 -17
4 -48 21 -70 38 l-39 30 6 -29 c3 -16 11 -51 16 -79 6 -27 13 -76 15 -107 2
-35 12 -72 25 -94 25 -41 22 -64 -8 -64 -11 0 -23 -5 -27 -11 -21 -35 -34 112
-15 178 7 24 6 35 -5 44 -8 6 -14 28 -14 49 0 38 0 38 -50 45 -48 7 -68 20
-105 70 -8 11 -14 16 -14 10z"/>
<path d="M1626 3605 c-15 -51 -16 -154 -2 -193 7 -20 11 -43 8 -51 -3 -8 0
-11 7 -7 6 4 11 2 11 -3 0 -6 4 -11 8 -11 5 0 8 10 7 23 -3 28 5 43 15 27 10
-16 12 43 4 133 -5 60 -8 68 -25 64 -13 -4 -19 2 -21 22 l-3 26 -9 -30z"/>
<path d="M2350 3577 c-25 -5 -52 -15 -61 -23 -8 -8 -21 -14 -27 -14 -16 0 -55
-39 -77 -77 -15 -26 -17 -35 -7 -45 7 -7 12 -27 12 -45 0 -35 8 -41 28 -21 16
16 41 -17 34 -46 -4 -20 -4 -20 12 2 10 12 14 27 11 32 -3 6 1 10 9 10 9 0 16
-6 16 -14 0 -21 72 -45 153 -51 39 -3 86 -8 102 -10 l30 -4 -28 13 c-31 14
-26 26 10 26 27 0 32 19 6 21 -10 1 8 5 40 9 67 9 96 27 58 37 -14 4 -18 8
-11 13 15 9 4 68 -20 107 -13 22 -28 32 -55 36 -21 3 -45 13 -54 21 -10 9 -42
19 -72 22 -30 3 -56 7 -59 8 -3 2 -25 -1 -50 -7z"/>
<path d="M1933 3444 c11 -11 -27 -40 -69 -52 -77 -22 -101 -82 -30 -74 20 2
36 8 36 14 0 5 10 2 22 -6 33 -24 113 -21 138 4 l20 20 -20 40 c-16 30 -26 40
-45 40 -14 0 -25 5 -25 10 0 6 -7 10 -17 10 -9 0 -14 -3 -10 -6z"/>
</g>
</svg>
