<?xml version="1.0" standalone="no"?>
<!DOCTYPE svg PUBLIC "-//W3C//DTD SVG 20010904//EN"
 "http://www.w3.org/TR/2001/REC-SVG-20010904/DTD/svg10.dtd">
<svg version="1.0" xmlns="http://www.w3.org/2000/svg"
 width="260.000000pt" height="353.000000pt" viewBox="0 0 260.000000 353.000000"
 preserveAspectRatio="xMidYMid meet">
<metadata>
Created by potrace 1.14, written by Peter Selinger 2001-2017
</metadata>
<g transform="translate(0.000000,353.000000) scale(0.100000,-0.100000)"
fill="#000000" stroke="none">
<path d="M0 3215 c0 -273 2 -315 15 -315 8 0 15 -6 15 -12 0 -10 2 -10 8 0 10
15 62 12 56 -3 -3 -6 9 -26 26 -45 16 -18 30 -37 30 -42 0 -4 7 -8 15 -8 8 0
15 -4 15 -10 0 -5 5 -10 10 -10 7 0 7 7 0 20 -6 11 -8 25 -4 31 3 6 -2 16 -12
24 -18 13 -18 14 -1 20 9 4 17 13 17 21 0 22 48 17 55 -6 3 -11 11 -20 16 -20
5 0 9 -12 9 -26 0 -20 -4 -25 -16 -20 -8 3 -12 2 -9 -4 3 -6 14 -10 23 -10 16
-1 16 -2 0 -14 -23 -17 -23 -25 1 -19 30 8 33 -32 5 -62 -28 -30 -44 -32 -44
-5 0 27 -25 25 -44 -2 -20 -28 -20 -64 -1 -72 17 -6 21 -66 5 -66 -5 0 -10 10
-10 23 0 12 -4 28 -9 35 -10 16 -46 12 -46 -5 0 -18 -13 -26 -31 -19 -13 5
-14 9 -4 21 7 8 9 15 5 15 -4 0 -2 7 5 15 7 8 9 15 4 15 -5 0 -10 14 -11 31
-2 29 0 31 24 24 18 -4 31 -1 43 13 17 18 17 19 -4 32 -11 8 -26 14 -33 15 -6
0 -23 13 -37 30 -22 25 -26 27 -32 12 -3 -9 -12 -17 -19 -17 -8 0 -15 -6 -18
-12 -2 -7 -2 -3 -1 9 2 12 0 32 -5 45 -6 14 -10 -285 -10 -794 0 -766 1 -818
17 -818 9 -1 82 -1 162 -1 136 0 159 -4 160 -29 0 -3 -26 -5 -57 -5 -32 0
-109 -1 -170 -3 l-113 -2 0 -65 0 -65 280 -2 c272 -3 280 -4 267 -22 -15 -20
-63 -23 -399 -25 l-148 -1 0 -25 c0 -24 2 -25 73 -25 91 0 101 -6 80 -47 -8
-18 -25 -43 -37 -56 -11 -13 -32 -43 -45 -68 -13 -24 -29 -51 -35 -59 -35 -48
-36 -58 -36 -395 l0 -335 984 0 c778 0 985 3 989 13 4 9 6 9 6 0 1 -10 70 -13
311 -13 l310 0 0 175 c0 196 5 182 -83 244 -26 19 -47 38 -47 43 0 4 -7 8 -15
8 -8 0 -15 7 -15 15 0 8 -11 17 -25 21 -14 3 -25 11 -25 18 -1 19 -39 58 -50
51 -5 -3 -13 2 -17 12 -4 10 -10 21 -15 24 -38 25 -170 151 -290 276 l-66 70
316 1 c174 1 320 2 325 2 4 0 7 15 7 33 l0 32 -221 -3 c-122 -2 -219 0 -217 5
31 65 24 62 114 59 46 -2 87 -6 90 -9 4 -4 16 -1 27 5 11 6 41 8 66 5 25 -3
68 -3 94 0 l48 6 -2 129 c-1 71 -6 131 -11 134 -4 3 -8 -1 -8 -9 0 -10 -8 -13
-25 -9 -14 2 -25 8 -25 12 0 9 -51 32 -58 25 -3 -3 0 -5 6 -5 7 0 12 -11 12
-25 0 -21 -5 -25 -27 -25 -24 0 -28 4 -30 32 -1 17 -7 36 -12 41 -12 12 -36
-31 -32 -56 3 -21 -17 -49 -30 -42 -4 3 -6 12 -2 20 6 18 -13 20 -20 3 -4 -10
-8 -9 -17 2 -9 11 -13 12 -17 3 -2 -7 -16 -13 -29 -13 -14 0 -23 -4 -20 -9 4
-5 1 -11 -5 -13 -8 -3 -7 -13 5 -35 17 -34 21 -63 8 -63 -5 0 -13 12 -19 28
-11 27 -11 27 -6 -5 4 -23 2 -33 -7 -33 -7 0 -10 -8 -7 -20 3 -14 0 -20 -10
-20 -12 0 -14 8 -10 34 4 28 3 34 -9 29 -10 -4 -14 3 -15 23 -4 74 -3 79 17
77 17 -2 19 5 19 62 0 35 -3 62 -6 60 -3 -2 -3 14 0 35 5 30 14 44 43 64 l37
24 10 -30 c8 -23 8 -40 -1 -65 -9 -26 -9 -36 0 -45 9 -9 12 -9 12 3 0 12 2 12
10 -1 9 -13 12 -12 26 5 8 11 26 43 40 71 19 41 22 56 14 83 -7 27 -5 36 11
52 20 20 20 21 2 35 -17 13 -17 14 4 20 46 13 27 54 -24 54 -21 0 -72 51 -92
92 -16 31 -41 45 -41 23 0 -8 -4 -15 -9 -15 -5 0 -3 21 5 47 16 52 19 119 5
127 -5 3 -6 -15 -3 -39 4 -40 3 -45 -13 -39 -12 5 -16 15 -12 38 3 17 -4 69
-16 114 -21 86 -17 122 15 113 7 -2 19 -4 26 -4 6 0 12 -8 12 -18 0 -10 8 -23
19 -28 10 -6 22 -26 25 -45 4 -20 12 -38 18 -42 8 -5 9 -1 4 12 -5 10 -10 30
-11 43 -2 13 -8 27 -13 30 -10 6 -32 45 -32 56 0 3 5 3 10 0 6 -4 22 -8 36
-11 21 -4 24 -2 16 12 -8 15 -5 54 4 54 2 0 22 -7 44 -16 30 -12 45 -26 55
-51 14 -33 15 -33 33 -15 11 11 25 21 33 24 17 6 -25 68 -46 68 -8 0 -16 8
-19 18 -8 24 -43 62 -58 62 -7 0 -7 -5 1 -14 10 -12 8 -17 -8 -25 -30 -17 -98
-14 -105 4 -3 8 -28 25 -55 36 -35 16 -49 27 -48 41 2 24 12 23 36 -4 18 -19
24 -20 48 -9 20 9 23 15 14 20 -7 5 -21 6 -31 4 -10 -3 -21 0 -24 6 -4 6 -17
11 -29 12 -21 0 -21 1 -2 9 11 5 32 9 46 9 15 1 29 7 32 15 4 9 16 11 43 7 33
-5 39 -11 45 -39 4 -21 3 -32 -5 -32 -12 0 14 -20 26 -20 4 0 17 18 28 40 16
32 18 45 9 61 -14 27 -5 36 16 15 9 -9 21 -16 26 -16 15 0 16 102 0 108 -4 1
-6 14 -3 27 3 18 0 25 -12 25 -12 0 -16 -10 -16 -37 0 -21 -4 -33 -8 -27 -4 6
-24 13 -44 16 -31 3 -38 1 -40 -16 -2 -11 -9 -21 -17 -24 -11 -4 -12 2 -7 24
4 16 8 43 9 60 2 18 15 50 31 72 29 42 28 74 -2 50 -13 -11 -15 -10 -9 4 3 10
2 20 -3 23 -6 4 -10 1 -10 -4 0 -6 -4 -11 -10 -11 -5 0 -10 7 -10 15 0 8 -4
15 -8 15 -14 0 -43 -36 -35 -43 3 -4 1 -7 -5 -7 -5 0 -19 -3 -29 -7 -16 -6
-16 -5 -4 10 12 15 11 17 -5 18 -12 0 -14 3 -6 6 17 7 -3 33 -27 34 -9 0 -11
3 -5 5 6 3 9 15 7 28 -4 20 -11 24 -45 24 -27 1 -47 -6 -61 -19 -12 -11 -28
-17 -37 -14 -11 5 -11 2 3 -12 10 -10 25 -28 35 -39 9 -12 41 -34 70 -49 28
-15 52 -31 52 -35 0 -15 -41 -22 -56 -9 -8 6 -28 12 -44 11 -28 -1 -46 20 -34
39 3 5 -2 12 -10 15 -9 3 -16 14 -16 24 0 12 -10 21 -30 25 -16 4 -32 11 -35
16 -4 5 -17 9 -30 9 -13 0 -27 5 -30 10 -4 6 -11 7 -17 4 -7 -5 -8 -2 -3 6 4
7 2 16 -5 20 -9 6 -9 12 2 29 9 15 10 24 2 29 -14 9 -27 62 -15 62 5 0 11 -6
14 -12 2 -7 8 -10 12 -6 12 11 -22 39 -40 32 -12 -5 -15 -14 -11 -30 8 -30
-10 -31 -20 -1 -5 12 -8 24 -9 27 0 3 -6 14 -12 25 -12 19 -12 18 -13 -10 -1
-30 -1 -30 -13 -7 -7 12 -16 19 -20 16 -4 -4 -7 4 -7 17 -1 22 -2 23 -14 6
-11 -14 -15 -15 -19 -5 -7 16 -44 -26 -53 -59 -7 -28 -24 -20 -24 10 0 13 -7
32 -15 44 -8 12 -16 32 -18 45 -3 15 -11 23 -26 24 -30 2 -73 51 -66 75 8 24
25 25 25 2 0 -13 3 -14 11 -6 6 6 18 9 26 6 11 -4 14 0 11 18 -2 19 -9 24 -30
24 -23 -1 -25 2 -16 18 6 13 6 23 -3 35 -8 9 -15 19 -16 21 -1 2 -11 -6 -21
-19 l-18 -22 -31 26 c-17 14 -43 26 -58 26 -22 0 -25 3 -16 13 8 11 5 17 -16
26 -23 11 -29 10 -39 -3 -6 -9 -14 -16 -16 -16 -12 0 -17 45 -6 51 6 4 -3 6
-20 5 -17 -1 -34 -5 -38 -9 -4 -4 -17 -7 -29 -7 -15 0 -27 -10 -37 -29 -16
-35 -45 -27 -35 8 4 18 1 21 -16 19 -11 -2 -32 -13 -45 -25 -30 -28 -45 -20
-37 18 7 32 -5 38 -29 13 -15 -14 -16 -13 -16 8 0 14 16 41 40 66 22 22 40 46
40 51 0 18 45 17 83 -1 21 -10 43 -16 49 -12 7 5 9 -2 6 -20 -4 -21 -2 -26 9
-22 8 3 17 6 19 6 2 0 4 11 4 24 0 27 15 42 25 27 3 -6 12 -8 19 -5 8 3 17 0
21 -7 6 -9 1 -10 -19 -7 -29 6 -46 -9 -26 -22 7 -4 10 -15 7 -24 -6 -14 -3
-15 14 -5 17 9 23 8 30 -2 6 -10 9 -3 10 21 1 34 1 35 12 10 12 -25 37 -39 37
-20 0 6 7 10 15 10 8 0 15 6 15 14 0 8 6 17 13 19 9 4 9 6 0 6 -8 1 -13 14
-13 31 0 33 -3 35 -31 20 -13 -7 -19 -7 -19 0 0 6 -33 10 -86 10 -54 0 -83 -4
-79 -10 3 -5 15 -10 26 -10 10 0 19 -7 19 -15 0 -25 -55 -18 -81 10 -28 28
-39 31 -39 10 0 -8 -7 -15 -15 -15 -8 0 -15 7 -15 15 0 8 -4 15 -10 15 -5 0
-10 -5 -10 -12 0 -9 -3 -9 -12 0 -9 9 -143 12 -540 12 l-528 0 0 -315z m915
195 c-3 -5 -1 -18 5 -29 7 -14 7 -28 0 -46 -9 -23 -8 -26 5 -21 10 3 15 -1 15
-12 0 -10 6 -24 13 -31 10 -10 9 -15 -5 -25 -10 -7 -18 -18 -18 -25 0 -6 -7
-14 -15 -17 -8 -4 -15 -15 -15 -25 0 -16 -3 -18 -19 -9 -30 16 -38 12 -50 -20
-9 -27 -31 -42 -31 -21 0 16 -31 21 -53 9 -12 -6 -29 -20 -39 -32 -17 -21 -17
-21 -18 -1 0 15 -2 17 -9 6 -6 -10 -10 -10 -16 -1 -9 15 1 23 45 39 67 25 78
32 73 52 -3 10 -14 19 -24 19 -11 0 -19 7 -19 16 0 9 -13 21 -30 27 -38 14
-40 32 -2 23 53 -13 67 -12 66 7 -2 21 15 22 44 1 12 -8 22 -11 22 -5 0 5 -4
13 -10 16 -15 9 -12 25 4 25 9 0 12 7 9 20 -4 14 1 22 19 29 13 5 30 16 37 25
15 18 26 22 16 6z m600 -482 c14 -6 25 -15 25 -20 0 -5 9 -18 20 -30 24 -26
26 -40 3 -31 -12 5 -15 2 -10 -10 5 -12 -1 -19 -19 -23 -19 -5 -22 -9 -12 -15
10 -7 10 -9 -2 -9 -8 0 -36 20 -62 45 -43 40 -52 45 -90 42 -36 -2 -46 -7 -66
-37 -21 -31 -23 -42 -17 -99 5 -45 4 -61 -4 -57 -6 4 -11 37 -11 77 0 38 -2
69 -4 69 -3 0 -19 -14 -36 -32 -20 -20 -34 -46 -39 -72 l-6 -41 -31 50 c-41
68 -44 78 -28 99 11 16 16 17 29 6 12 -10 16 -9 21 4 9 23 24 20 25 -6 0 -13
3 -17 6 -10 2 6 10 12 16 12 7 0 18 9 25 20 7 11 19 20 27 20 7 0 30 10 50 21
62 37 143 49 190 27z m263 -117 c18 -22 32 -44 32 -50 0 -5 11 -18 25 -29 14
-11 25 -25 25 -30 0 -6 4 -14 10 -17 6 -4 7 11 4 39 -9 59 10 61 58 8 19 -21
43 -42 52 -45 9 -4 24 -20 34 -36 9 -17 27 -35 39 -40 13 -6 23 -15 23 -20 0
-13 -54 -21 -65 -9 -7 8 -4 9 10 4 17 -6 18 -5 5 6 -8 7 -19 19 -25 27 -9 11
-14 10 -28 -4 -15 -14 -20 -15 -35 -3 -15 12 -16 11 -4 -4 8 -9 12 -27 10 -40
-4 -23 -5 -22 -16 5 -6 15 -17 27 -23 27 -13 0 -109 98 -109 111 0 5 -6 9 -13
9 -8 0 -23 11 -36 24 -16 17 -21 33 -19 65 2 22 6 41 9 41 3 0 20 -18 37 -39z
m-174 -136 c23 -17 56 -20 56 -5 0 26 154 0 165 -29 9 -23 -6 -27 -21 -7 -8
11 -14 16 -14 12 0 -5 -7 -3 -15 4 -34 28 -12 -9 36 -60 28 -30 55 -65 60 -77
5 -14 17 -23 31 -23 13 -1 39 -14 58 -30 19 -17 42 -30 52 -30 10 0 18 -4 18
-10 0 -5 -4 -10 -10 -10 -5 0 -10 -6 -10 -14 0 -23 -75 11 -91 40 -14 27 -29
32 -29 9 0 -16 21 -67 31 -75 19 -15 39 -75 39 -115 0 -25 5 -45 10 -45 6 0
10 -13 10 -29 0 -16 6 -36 14 -44 8 -8 17 -36 21 -63 4 -27 11 -64 17 -82 8
-27 12 -31 24 -21 11 9 14 7 14 -9 0 -11 -6 -22 -12 -24 -10 -4 -7 -28 10
-104 13 -58 22 -133 22 -179 0 -74 2 -81 23 -90 12 -6 23 -20 25 -32 2 -15 10
-23 24 -23 14 0 18 5 14 16 -3 8 -2 12 3 9 5 -3 12 3 14 12 3 10 5 5 6 -12 1
-33 -29 -148 -50 -186 -16 -32 -39 -48 -66 -49 -18 0 -23 -8 -29 -48 -4 -26
-22 -80 -40 -120 -19 -41 -34 -78 -34 -84 0 -6 -15 -24 -32 -42 -29 -27 -33
-38 -34 -86 0 -30 -6 -163 -12 -295 -13 -294 -29 -373 -82 -414 -42 -33 -141
-77 -193 -87 -21 -3 -41 -13 -44 -20 -6 -16 -49 -19 -58 -4 -3 6 -31 10 -62
10 l-55 0 6 35 c6 28 4 35 -9 35 -11 0 -15 7 -13 23 2 16 11 23 31 25 28 3 36
17 15 25 -7 3 2 6 20 6 27 1 32 5 32 25 0 15 15 38 40 62 22 21 40 46 40 55 0
10 8 20 18 22 13 4 12 5 -5 6 -12 0 -29 -6 -37 -15 -9 -8 -16 -11 -16 -5 0 6
-6 11 -13 11 -8 0 -14 6 -14 13 0 6 -4 20 -8 29 -5 13 -1 20 11 25 24 9 43 33
44 56 0 10 8 17 20 17 11 0 20 5 20 11 0 6 9 8 20 4 13 -4 20 -2 20 7 0 8 28
41 63 74 82 78 98 100 147 186 23 40 49 81 57 91 18 19 16 24 -12 29 -14 2
-19 -2 -17 -14 2 -12 -2 -16 -13 -12 -8 3 -15 1 -15 -5 0 -6 -11 -21 -25 -33
-13 -11 -22 -25 -19 -30 3 -4 -2 -11 -10 -14 -9 -3 -16 -15 -16 -25 0 -12 -5
-16 -15 -13 -10 4 -15 0 -15 -11 0 -12 -5 -15 -20 -10 -15 5 -20 2 -21 -14 -1
-12 -3 -25 -4 -31 -1 -5 -3 -13 -4 -16 0 -4 -7 -2 -14 4 -20 17 -82 7 -117
-18 l-31 -22 -23 21 c-29 27 -52 27 -59 0 -4 -15 -11 -20 -22 -15 -9 3 -23 6
-31 6 -8 0 -14 8 -15 18 0 10 -3 12 -6 5 -4 -10 -9 -10 -26 2 -19 13 -24 13
-44 0 -15 -10 -23 -12 -23 -4 0 7 -11 9 -30 6 -18 -4 -30 -2 -30 4 0 6 -4 8
-9 4 -5 -3 -19 7 -32 22 -14 18 -23 23 -26 16 -7 -20 -23 -15 -23 7 0 12 -10
24 -24 30 -13 5 -27 18 -31 30 -3 11 -11 18 -16 15 -5 -4 -9 3 -9 13 0 11 -7
22 -15 26 -10 3 -15 -1 -15 -14 0 -35 -17 -30 -78 25 -33 30 -65 55 -71 55 -6
0 -11 3 -11 8 0 4 -15 23 -33 42 -36 39 -87 115 -87 129 0 6 -7 14 -17 19 -20
12 -53 113 -53 165 0 32 -3 37 -22 37 -47 0 -83 34 -102 96 -42 140 -45 155
-36 177 8 21 9 21 9 -4 1 -15 9 -33 18 -40 15 -13 16 -12 9 11 -5 14 -10 43
-13 65 l-4 40 16 -30 c9 -16 23 -37 31 -46 8 -8 14 -21 14 -27 0 -7 7 -12 15
-12 11 0 13 8 8 32 -5 26 -3 30 9 25 12 -4 19 5 28 41 6 26 21 67 32 92 13 30
23 82 29 157 11 140 24 192 57 229 47 50 63 99 63 198 1 92 20 163 40 150 7
-4 7 -10 0 -17 -6 -6 -11 -14 -11 -19 0 -4 18 10 40 32 22 22 40 46 40 55 0 8
5 15 10 15 6 0 10 -9 10 -20 0 -14 5 -18 18 -13 9 4 20 11 24 17 4 6 10 7 14
3 4 -3 1 -13 -5 -21 -19 -22 -4 -36 29 -29 29 5 29 5 20 -28 -14 -49 -12 -54
10 -34 19 17 22 58 6 84 -10 16 5 14 24 -4 16 -14 17 -14 13 12 l-5 28 16 -28
c14 -26 13 -29 -10 -54 -18 -19 -24 -37 -24 -69 0 -51 17 -68 23 -22 3 25 4
22 5 -15 1 -29 -2 -46 -8 -42 -6 4 -7 -6 -4 -25 5 -23 3 -30 -10 -30 -9 0 -16
-7 -16 -15 0 -22 24 -18 47 8 27 29 35 55 24 75 -4 9 -11 41 -14 70 -5 47 -4
52 8 42 8 -7 15 -21 15 -31 0 -11 5 -19 10 -19 6 0 10 9 10 20 0 25 17 27 22
3 3 -16 5 -16 24 3 16 16 40 23 95 28 73 8 129 28 129 46 0 6 10 10 23 10 13
0 33 13 47 30 14 16 29 29 34 30 6 0 20 10 33 22 l23 22 -22 23 c-24 26 -14
31 16 8z"/>
<path d="M968 2085 c-82 -12 -92 -21 -42 -34 64 -17 213 -28 217 -16 3 7 8 7
18 -1 20 -15 54 -12 54 6 0 23 -74 54 -130 54 -27 1 -80 -3 -117 -9z"/>
<path d="M1170 1972 c0 -5 -46 -17 -102 -26 -94 -16 -218 -61 -232 -84 -3 -5
35 -7 87 -5 51 2 101 -1 112 -6 11 -5 28 -12 38 -15 10 -3 17 -11 16 -18 -4
-36 1 -40 37 -33 49 9 85 26 81 39 -2 5 6 19 16 29 20 20 20 20 34 1 14 -17
14 -16 8 14 -4 20 -3 32 4 32 6 0 12 -10 12 -22 1 -18 2 -19 6 -5 8 29 -19 74
-54 91 -37 18 -63 21 -63 8z"/>
<path d="M1547 1920 c-21 -25 -22 -39 -2 -46 8 -4 15 -12 15 -20 0 -7 9 -18
20 -24 11 -6 18 -15 15 -20 -8 -13 54 -50 84 -50 20 0 22 4 17 25 -10 38 20
48 140 43 97 -3 128 4 87 19 -10 4 -35 17 -56 30 -65 41 -262 77 -278 51 -6
-10 -9 -10 -9 0 0 18 -13 15 -33 -8z"/>
<path d="M1040 1288 c0 -31 112 -50 323 -54 109 -2 202 -6 208 -9 13 -9 119 5
119 16 0 17 -136 34 -146 18 -3 -5 -15 -7 -27 -5 -12 3 -60 8 -107 11 -104 7
-258 22 -322 31 -39 5 -48 4 -48 -8z"/>
<path d="M1477 3510 c4 -13 0 -20 -9 -20 -8 0 -15 -7 -15 -15 0 -8 8 -15 17
-15 9 0 26 -9 37 -20 26 -23 80 -40 68 -20 -6 9 0 10 24 5 20 -4 31 -3 31 4 0
6 5 11 10 11 6 0 10 -11 10 -24 0 -23 3 -25 43 -22 53 4 98 -4 91 -15 -3 -5
-17 -9 -32 -9 -26 0 -24 -2 26 -49 30 -27 70 -57 90 -67 21 -9 41 -23 45 -30
4 -8 18 -14 30 -14 20 1 21 2 5 14 -26 19 -22 29 5 14 12 -7 42 -14 66 -15 35
-3 47 1 58 17 11 15 25 20 59 20 41 0 45 2 39 20 -5 15 0 21 21 26 18 5 29 3
32 -4 4 -14 29 -16 34 -3 2 5 32 10 67 12 62 4 65 3 71 -21 4 -15 9 -20 13
-13 4 6 4 18 1 27 -5 14 4 16 60 16 52 0 66 -3 66 -15 0 -10 -10 -15 -30 -15
-34 0 -41 -15 -9 -17 12 -1 25 -6 30 -10 7 -8 27 -310 34 -513 9 -275 19 -465
25 -493 5 -18 8 262 9 621 l1 652 -564 0 c-559 0 -564 0 -559 -20z"/>
<path d="M2363 1936 c0 -36 5 -60 14 -68 19 -15 33 5 25 35 -3 13 -1 18 6 14
5 -4 12 -1 15 5 5 15 27 -34 27 -60 0 -9 12 -28 26 -41 24 -23 25 -23 39 -5 7
11 11 31 8 45 -7 34 13 47 21 14 9 -36 26 -31 26 8 0 18 6 39 13 46 10 10 7
11 -16 7 -15 -3 -25 -1 -22 3 2 5 -5 19 -16 32 -17 20 -22 21 -29 9 -6 -8 -8
-21 -5 -27 2 -7 0 -13 -5 -13 -6 0 -10 7 -10 16 0 14 -3 14 -15 4 -12 -10 -15
-9 -15 5 0 14 -3 15 -14 6 -10 -9 -16 -9 -21 -1 -4 6 -13 9 -20 6 -7 -2 -17 0
-22 5 -7 7 -10 -9 -10 -45z"/>
</g>
</svg>
