<?xml version="1.0" standalone="no"?>
<!DOCTYPE svg PUBLIC "-//W3C//DTD SVG 20010904//EN"
 "http://www.w3.org/TR/2001/REC-SVG-20010904/DTD/svg10.dtd">
<svg version="1.0" xmlns="http://www.w3.org/2000/svg"
 width="784.000000pt" height="398.000000pt" viewBox="0 0 784.000000 398.000000"
 preserveAspectRatio="xMidYMid meet">
<metadata>
Created by potrace 1.14, written by Peter Selinger 2001-2017
</metadata>
<g transform="translate(0.000000,398.000000) scale(0.100000,-0.100000)"
fill="#000000" stroke="none">
<path d="M6528 3895 c-94 -35 -194 -83 -209 -101 -13 -16 -20 -54 -10 -54 4 0
16 9 26 20 10 11 23 20 29 20 6 0 0 -7 -13 -16 -12 -9 -31 -35 -41 -58 -25
-55 -52 -98 -70 -113 -8 -7 -10 -13 -4 -13 6 0 16 -12 22 -26 7 -14 17 -22 23
-18 15 9 29 -14 29 -48 0 -29 -14 -38 -24 -15 -3 6 -4 -25 -2 -70 3 -60 0 -87
-11 -102 -8 -12 -13 -29 -12 -39 1 -9 -2 -28 -8 -42 -5 -14 -11 -45 -11 -68
-1 -24 -4 -48 -7 -52 -3 -5 -1 -11 5 -15 13 -8 13 -95 0 -95 -15 0 -12 -80 6
-140 19 -65 50 -115 98 -158 20 -18 36 -41 36 -52 0 -11 6 -20 14 -20 23 0 29
-19 12 -36 -9 -8 -16 -32 -16 -52 -1 -32 -2 -34 -11 -18 -6 10 -9 36 -6 57 5
38 4 39 -21 33 -60 -14 -122 -39 -230 -91 -95 -45 -118 -61 -144 -98 -19 -27
-46 -50 -68 -59 -46 -18 -136 -138 -162 -216 -11 -30 -28 -104 -39 -165 -11
-60 -32 -153 -45 -205 -39 -148 -40 -165 -12 -184 47 -31 49 -47 28 -201 -6
-38 -17 -140 -25 -225 -8 -85 -17 -165 -21 -177 -5 -19 -3 -21 18 -17 17 3 15
0 -9 -11 -22 -10 -36 -27 -48 -60 -24 -62 -16 -128 30 -246 40 -102 84 -259
85 -299 0 -15 5 -31 11 -37 6 -6 17 -22 23 -35 15 -31 52 -47 138 -61 86 -15
101 -31 70 -75 -12 -16 -22 -35 -22 -42 0 -7 -13 -25 -30 -40 -16 -15 -30 -35
-30 -44 0 -15 82 -16 900 -16 988 0 927 -4 874 59 -19 23 -23 35 -15 44 5 7 8
23 5 35 -4 13 0 28 10 37 9 9 16 27 16 39 0 61 12 85 44 91 17 4 55 13 84 21
l52 15 0 883 0 884 -40 77 c-43 86 -70 119 -114 142 -16 9 -57 37 -90 63 -34
26 -71 52 -83 59 -14 7 -20 17 -17 26 8 20 -25 47 -109 90 -78 41 -197 70
-209 52 -5 -9 -19 -6 -50 11 -24 12 -51 22 -61 22 -25 0 -101 64 -127 105 -16
26 -20 50 -20 126 0 117 11 159 47 180 16 9 44 42 63 75 34 56 35 62 33 152
-1 99 -7 112 -47 105 -22 -5 -22 -4 -14 79 15 153 11 204 -19 260 -32 59 -91
113 -142 129 -20 6 -46 18 -59 26 -30 19 -208 24 -254 8z"/>
<path d="M1290 3795 c-19 -8 -44 -14 -55 -14 -12 -1 -26 -6 -33 -13 -7 -7 -12
-8 -12 -4 0 5 -10 2 -22 -6 -13 -8 -45 -23 -73 -33 -84 -31 -130 -70 -158
-134 -30 -67 -52 -153 -62 -238 -6 -57 -5 -61 12 -57 12 3 35 -12 67 -42 54
-51 52 -33 28 -204 -5 -36 -7 -126 -5 -200 3 -74 5 -172 6 -217 2 -80 3 -83
28 -88 15 -3 31 -17 37 -30 7 -14 16 -25 22 -25 5 0 10 -7 10 -15 0 -9 7 -18
15 -21 8 -4 12 -10 9 -16 -3 -5 -3 -34 1 -64 10 -82 27 -94 131 -88 87 4 115
-9 47 -22 -88 -17 -229 28 -328 104 -56 43 -125 128 -125 155 0 14 -5 17 -19
12 -11 -3 -22 -1 -25 4 -8 12 26 23 47 16 8 -4 18 -2 22 4 16 27 -136 -4 -183
-37 -15 -11 -67 -30 -116 -43 -74 -19 -92 -28 -105 -50 -12 -21 -41 -37 -136
-73 -66 -25 -125 -46 -131 -46 -20 0 -131 -125 -158 -177 l-26 -52 0 -840 0
-839 68 -17 c38 -9 100 -19 138 -23 l69 -7 9 -75 c9 -81 9 -196 1 -247 l-6
-33 904 0 904 0 -19 73 c-36 133 -37 150 -12 209 54 127 46 299 -19 448 -13
30 -27 72 -30 93 -5 34 -3 39 18 47 14 5 30 18 37 30 17 26 24 25 31 -2 40
-175 49 -226 54 -303 3 -60 0 -126 -11 -200 -10 -60 -20 -174 -23 -252 l-6
-143 171 0 170 0 16 68 c45 200 70 457 53 562 -4 30 -6 69 -3 85 4 17 -3 71
-13 120 -22 103 -38 236 -50 415 -8 117 -8 126 10 142 19 16 19 18 -11 100
-16 46 -41 133 -55 193 -34 145 -59 220 -112 335 -71 154 -95 183 -201 245
-51 30 -104 58 -118 61 -14 4 -37 24 -51 46 -15 22 -33 38 -42 36 -9 -1 -30 6
-48 15 -38 20 -47 21 -36 5 4 -7 -4 -5 -19 4 -27 18 -120 51 -177 63 -24 5
-31 4 -26 -4 7 -13 -40 -101 -55 -101 -15 0 -23 47 -17 98 13 109 35 180 73
228 37 49 85 144 83 167 0 7 -5 3 -10 -8 -8 -17 -9 -16 -4 5 4 14 7 61 7 105
1 44 7 91 15 105 7 14 13 19 13 13 0 -7 4 -13 9 -13 10 0 27 101 24 139 -3 30
-60 91 -85 91 -24 0 -35 29 -17 41 8 5 25 9 37 9 13 0 22 3 20 8 -25 51 -34
62 -50 62 -22 0 -23 12 -3 50 26 49 58 41 86 -22 22 -48 24 -67 24 -196 0 -78
1 -142 3 -142 13 0 44 104 50 169 9 89 -4 160 -38 219 -11 18 -20 42 -20 52 0
22 -58 92 -70 85 -11 -7 -31 20 -22 30 4 5 2 5 -4 2 -6 -4 -23 7 -38 24 -31
35 -75 56 -156 74 -30 7 -64 15 -75 18 -11 3 -36 -1 -55 -8z m198 -221 c41
-32 65 -86 52 -119 -6 -16 -6 -27 1 -31 8 -4 7 -9 -2 -15 -11 -7 -11 -12 -2
-27 6 -10 8 -24 4 -31 -10 -15 -41 -3 -35 14 3 7 1 16 -4 19 -6 3 -13 -5 -16
-19 l-6 -24 -33 19 c-48 28 -142 42 -190 29 -36 -9 -93 -56 -83 -67 3 -2 19 1
37 7 45 16 79 14 79 -4 0 -9 -9 -15 -22 -15 -13 0 -38 -9 -56 -20 -43 -26 -40
-54 6 -58 20 -2 32 -8 29 -15 -2 -7 8 -20 22 -29 46 -32 121 -18 121 22 0 11
6 20 14 20 7 0 20 9 27 21 26 39 69 -3 69 -67 0 -14 9 -42 20 -64 11 -22 20
-50 19 -62 0 -23 0 -23 -11 2 -6 15 -12 20 -15 12 -3 -6 -9 -9 -14 -6 -6 3
-16 1 -23 -5 -11 -9 -48 -10 -109 -2 -4 1 -7 9 -5 19 2 11 -5 18 -21 20 -36 5
-112 -19 -118 -37 -2 -9 -9 -24 -15 -35 -7 -13 -6 -21 2 -26 10 -6 7 -19 -10
-54 -21 -44 -48 -59 -42 -23 1 8 -2 18 -8 22 -5 3 -10 26 -10 51 0 44 -13 57
-37 33 -13 -13 -43 25 -43 54 0 11 -7 33 -15 51 -14 30 -14 37 10 106 14 40
25 86 25 100 0 15 8 34 18 43 22 20 57 97 68 152 7 32 16 43 44 57 61 28 84
37 110 40 35 4 128 -29 168 -58z m-1133 -2531 c3 -27 11 -68 16 -93 17 -79 17
-134 0 -190 -17 -54 -18 -55 -51 -52 -31 2 -130 56 -130 70 0 3 12 50 27 105
19 72 32 103 48 113 12 8 30 32 40 54 24 54 42 51 50 -7z"/>
<path d="M4990 3757 c-75 -37 -341 -320 -426 -452 -41 -64 -144 -281 -144
-303 0 -14 -34 -8 -57 10 -7 5 -17 7 -23 3 -5 -3 -10 1 -10 10 0 12 5 15 16
11 15 -6 16 2 10 74 -11 117 -45 210 -102 273 -55 61 -93 89 -114 82 -9 -3
-30 -1 -47 4 -19 5 -35 5 -40 0 -14 -14 -45 1 -39 17 7 17 -20 19 -28 2 -3 -9
-8 -8 -16 5 -9 14 -15 15 -25 7 -8 -6 -22 -10 -32 -9 -21 2 -55 -10 -66 -25
-5 -6 -5 -1 -2 11 5 18 3 22 -10 17 -9 -4 -14 -13 -11 -20 3 -9 -2 -14 -13
-14 -11 0 -21 6 -24 13 -3 8 -11 5 -26 -10 -11 -12 -41 -34 -66 -49 -49 -28
-66 -54 -96 -143 -20 -61 -27 -198 -8 -171 7 11 8 6 4 -20 -4 -19 -11 -39 -16
-44 -5 -6 -9 -23 -9 -39 0 -16 -4 -26 -10 -22 -13 8 -26 -25 -13 -34 5 -3 12
-22 16 -41 3 -19 11 -48 17 -65 l12 -30 13 30 c7 17 14 24 14 17 1 -8 10 -25
21 -39 11 -14 17 -29 14 -34 -5 -9 10 -135 22 -178 5 -17 4 -22 -4 -17 -16 10
-15 -14 3 -57 14 -35 14 -37 -6 -48 -14 -7 -41 -9 -75 -4 -112 14 -209 -41
-245 -138 l-19 -52 4 68 c2 40 0 67 -6 67 -5 0 -12 -9 -15 -19 -4 -17 -9 -18
-36 -9 -27 10 -33 8 -49 -12 -10 -12 -18 -30 -18 -41 0 -10 -8 -23 -17 -28
-10 -6 -13 -11 -7 -11 5 0 16 6 22 12 10 10 14 8 18 -10 5 -17 14 -22 41 -22
27 0 34 -4 31 -17 -3 -16 -13 -18 -81 -14 -63 2 -78 0 -83 -13 -9 -23 -21 -20
-28 9 -8 32 -13 31 -68 -5 -54 -36 -95 -84 -170 -200 -119 -183 -176 -339
-268 -730 -23 -96 -48 -185 -56 -197 -16 -25 -19 -99 -4 -108 6 -4 3 -16 -7
-32 -24 -36 -21 -123 6 -191 25 -63 26 -72 6 -72 -18 0 -18 -5 -5 -31 11 -20
50 -27 50 -9 0 18 43 11 66 -11 13 -12 58 -34 101 -50 43 -15 69 -28 59 -28
-29 -1 -10 -14 47 -33 36 -11 44 -16 27 -17 -14 -1 -39 3 -56 8 l-31 9 -12
-54 c-10 -43 -10 -66 0 -111 12 -52 67 -173 90 -198 5 -5 9 -20 9 -32 0 -13 6
-36 14 -51 8 -15 17 -44 21 -65 l7 -37 117 0 117 0 13 36 c16 43 40 42 61 -3
l15 -33 833 0 c525 0 840 4 852 10 10 5 23 24 29 41 7 21 16 29 28 27 14 -3
17 -11 15 -41 l-4 -37 170 0 170 0 26 77 c39 122 45 148 72 323 14 91 31 194
36 229 8 48 7 73 -2 105 -7 22 -15 91 -16 151 -2 61 -10 139 -18 175 -8 36
-36 166 -61 290 -50 244 -81 348 -144 483 -105 227 -219 374 -336 432 -48 25
-61 36 -67 62 -11 41 -39 56 -92 49 -22 -3 -68 -8 -101 -12 -33 -3 -64 -9 -69
-12 -6 -3 -24 -6 -42 -7 -31 -1 -31 0 -17 22 11 16 25 23 49 23 18 0 35 4 38
9 6 9 -74 23 -109 18 -14 -1 -21 5 -23 21 -5 30 20 38 61 19 38 -18 109 -38
115 -33 2 2 -7 7 -20 11 -13 4 -41 15 -63 26 -22 10 -55 21 -73 25 -31 6 -32
5 -32 -25 0 -21 -5 -31 -15 -31 -8 0 -15 4 -15 8 0 5 -18 18 -40 31 -22 12
-44 30 -49 39 -9 15 -10 14 -11 -5 0 -15 -6 -23 -17 -23 -15 0 -16 -2 -3 -10
20 -13 -1 -13 -36 0 -21 8 -29 8 -36 -2 -5 -8 -6 0 -3 19 6 38 18 72 47 134
18 38 25 45 42 41 12 -3 26 -12 32 -21 10 -13 14 -13 28 -2 9 7 13 18 10 23
-3 5 1 17 9 26 9 9 19 31 23 47 3 17 26 66 50 111 24 45 44 88 44 97 0 27 94
238 134 300 46 72 122 159 261 302 93 95 145 164 145 193 0 4 -6 16 -12 25
-12 15 -16 15 -58 -6z"/>
</g>
</svg>
